<?xml version="1.0" encoding="utf-8" standalone="no"?>
<!DOCTYPE svg PUBLIC "-//W3C//DTD SVG 1.1//EN"
  "http://www.w3.org/Graphics/SVG/1.1/DTD/svg11.dtd">
<svg xmlns:xlink="http://www.w3.org/1999/xlink" width="360pt" height="504pt" viewBox="0 0 360 504" xmlns="http://www.w3.org/2000/svg" version="1.1">
 <metadata>
  <rdf:RDF xmlns:dc="http://purl.org/dc/elements/1.1/" xmlns:cc="http://creativecommons.org/ns#" xmlns:rdf="http://www.w3.org/1999/02/22-rdf-syntax-ns#">
   <cc:Work>
    <dc:type rdf:resource="http://purl.org/dc/dcmitype/StillImage"/>
    <dc:date>2025-05-20T22:00:01.759460</dc:date>
    <dc:format>image/svg+xml</dc:format>
    <dc:creator>
     <cc:Agent>
      <dc:title>Matplotlib v3.10.3, https://matplotlib.org/</dc:title>
     </cc:Agent>
    </dc:creator>
   </cc:Work>
  </rdf:RDF>
 </metadata>
 <defs>
  <style type="text/css">*{stroke-linejoin: round; stroke-linecap: butt}</style>
 </defs>
 <g id="figure_1">
  <g id="patch_1">
   <path d="M 0 504 
L 360 504 
L 360 0 
L 0 0 
z
" style="fill: #ffffff"/>
  </g>
  <g id="axes_1">
   <g id="patch_2">
    <path d="M 44.66 458.008 
L 349.2 458.008 
L 349.2 41.856 
L 44.66 41.856 
z
" style="fill: #ffffff"/>
   </g>
   <g id="matplotlib.axis_1">
    <g id="xtick_1">
     <g id="line2d_1">
      <defs>
       <path id="mcffa660942" d="M 0 0 
L 0 3.5 
" style="stroke: #000000; stroke-width: 0.8"/>
      </defs>
      <g>
       <use xlink:href="#mcffa660942" x="92.036475" y="458.008" style="stroke: #000000; stroke-width: 0.8"/>
      </g>
     </g>
     <g id="text_1">
      <!-- −2 -->
      <g transform="translate(84.665381 472.606438) scale(0.1 -0.1)">
       <defs>
        <path id="DejaVuSans-2212" d="M 678 2272 
L 4684 2272 
L 4684 1741 
L 678 1741 
L 678 2272 
z
" transform="scale(0.015625)"/>
        <path id="DejaVuSans-32" d="M 1228 531 
L 3431 531 
L 3431 0 
L 469 0 
L 469 531 
Q 828 903 1448 1529 
Q 2069 2156 2228 2338 
Q 2531 2678 2651 2914 
Q 2772 3150 2772 3378 
Q 2772 3750 2511 3984 
Q 2250 4219 1831 4219 
Q 1534 4219 1204 4116 
Q 875 4013 500 3803 
L 500 4441 
Q 881 4594 1212 4672 
Q 1544 4750 1819 4750 
Q 2544 4750 2975 4387 
Q 3406 4025 3406 3419 
Q 3406 3131 3298 2873 
Q 3191 2616 2906 2266 
Q 2828 2175 2409 1742 
Q 1991 1309 1228 531 
z
" transform="scale(0.015625)"/>
       </defs>
       <use xlink:href="#DejaVuSans-2212"/>
       <use xlink:href="#DejaVuSans-32" transform="translate(83.789062 0)"/>
      </g>
     </g>
    </g>
    <g id="xtick_2">
     <g id="line2d_2">
      <g>
       <use xlink:href="#mcffa660942" x="148.992268" y="458.008" style="stroke: #000000; stroke-width: 0.8"/>
      </g>
     </g>
     <g id="text_2">
      <!-- −1 -->
      <g transform="translate(141.621174 472.606438) scale(0.1 -0.1)">
       <defs>
        <path id="DejaVuSans-31" d="M 794 531 
L 1825 531 
L 1825 4091 
L 703 3866 
L 703 4441 
L 1819 4666 
L 2450 4666 
L 2450 531 
L 3481 531 
L 3481 0 
L 794 0 
L 794 531 
z
" transform="scale(0.015625)"/>
       </defs>
       <use xlink:href="#DejaVuSans-2212"/>
       <use xlink:href="#DejaVuSans-31" transform="translate(83.789062 0)"/>
      </g>
     </g>
    </g>
    <g id="xtick_3">
     <g id="line2d_3">
      <g>
       <use xlink:href="#mcffa660942" x="205.948061" y="458.008" style="stroke: #000000; stroke-width: 0.8"/>
      </g>
     </g>
     <g id="text_3">
      <!-- 0 -->
      <g transform="translate(202.766811 472.606438) scale(0.1 -0.1)">
       <defs>
        <path id="DejaVuSans-30" d="M 2034 4250 
Q 1547 4250 1301 3770 
Q 1056 3291 1056 2328 
Q 1056 1369 1301 889 
Q 1547 409 2034 409 
Q 2525 409 2770 889 
Q 3016 1369 3016 2328 
Q 3016 3291 2770 3770 
Q 2525 4250 2034 4250 
z
M 2034 4750 
Q 2819 4750 3233 4129 
Q 3647 3509 3647 2328 
Q 3647 1150 3233 529 
Q 2819 -91 2034 -91 
Q 1250 -91 836 529 
Q 422 1150 422 2328 
Q 422 3509 836 4129 
Q 1250 4750 2034 4750 
z
" transform="scale(0.015625)"/>
       </defs>
       <use xlink:href="#DejaVuSans-30"/>
      </g>
     </g>
    </g>
    <g id="xtick_4">
     <g id="line2d_4">
      <g>
       <use xlink:href="#mcffa660942" x="262.903854" y="458.008" style="stroke: #000000; stroke-width: 0.8"/>
      </g>
     </g>
     <g id="text_4">
      <!-- 1 -->
      <g transform="translate(259.722604 472.606438) scale(0.1 -0.1)">
       <use xlink:href="#DejaVuSans-31"/>
      </g>
     </g>
    </g>
    <g id="xtick_5">
     <g id="line2d_5">
      <g>
       <use xlink:href="#mcffa660942" x="319.859647" y="458.008" style="stroke: #000000; stroke-width: 0.8"/>
      </g>
     </g>
     <g id="text_5">
      <!-- 2 -->
      <g transform="translate(316.678397 472.606438) scale(0.1 -0.1)">
       <use xlink:href="#DejaVuSans-32"/>
      </g>
     </g>
    </g>
    <g id="text_6">
     <!-- Δ tntr  (K s$^{-1}$) -->
     <g transform="translate(162.83 487.006438) scale(0.1 -0.1)">
      <defs>
       <path id="DejaVuSans-394" d="M 2188 4044 
L 906 525 
L 3472 525 
L 2188 4044 
z
M 50 0 
L 1831 4666 
L 2547 4666 
L 4325 0 
L 50 0 
z
" transform="scale(0.015625)"/>
       <path id="DejaVuSans-20" transform="scale(0.015625)"/>
       <path id="DejaVuSans-74" d="M 1172 4494 
L 1172 3500 
L 2356 3500 
L 2356 3053 
L 1172 3053 
L 1172 1153 
Q 1172 725 1289 603 
Q 1406 481 1766 481 
L 2356 481 
L 2356 0 
L 1766 0 
Q 1100 0 847 248 
Q 594 497 594 1153 
L 594 3053 
L 172 3053 
L 172 3500 
L 594 3500 
L 594 4494 
L 1172 4494 
z
" transform="scale(0.015625)"/>
       <path id="DejaVuSans-6e" d="M 3513 2113 
L 3513 0 
L 2938 0 
L 2938 2094 
Q 2938 2591 2744 2837 
Q 2550 3084 2163 3084 
Q 1697 3084 1428 2787 
Q 1159 2491 1159 1978 
L 1159 0 
L 581 0 
L 581 3500 
L 1159 3500 
L 1159 2956 
Q 1366 3272 1645 3428 
Q 1925 3584 2291 3584 
Q 2894 3584 3203 3211 
Q 3513 2838 3513 2113 
z
" transform="scale(0.015625)"/>
       <path id="DejaVuSans-72" d="M 2631 2963 
Q 2534 3019 2420 3045 
Q 2306 3072 2169 3072 
Q 1681 3072 1420 2755 
Q 1159 2438 1159 1844 
L 1159 0 
L 581 0 
L 581 3500 
L 1159 3500 
L 1159 2956 
Q 1341 3275 1631 3429 
Q 1922 3584 2338 3584 
Q 2397 3584 2469 3576 
Q 2541 3569 2628 3553 
L 2631 2963 
z
" transform="scale(0.015625)"/>
       <path id="DejaVuSans-28" d="M 1984 4856 
Q 1566 4138 1362 3434 
Q 1159 2731 1159 2009 
Q 1159 1288 1364 580 
Q 1569 -128 1984 -844 
L 1484 -844 
Q 1016 -109 783 600 
Q 550 1309 550 2009 
Q 550 2706 781 3412 
Q 1013 4119 1484 4856 
L 1984 4856 
z
" transform="scale(0.015625)"/>
       <path id="DejaVuSans-4b" d="M 628 4666 
L 1259 4666 
L 1259 2694 
L 3353 4666 
L 4166 4666 
L 1850 2491 
L 4331 0 
L 3500 0 
L 1259 2247 
L 1259 0 
L 628 0 
L 628 4666 
z
" transform="scale(0.015625)"/>
       <path id="DejaVuSans-73" d="M 2834 3397 
L 2834 2853 
Q 2591 2978 2328 3040 
Q 2066 3103 1784 3103 
Q 1356 3103 1142 2972 
Q 928 2841 928 2578 
Q 928 2378 1081 2264 
Q 1234 2150 1697 2047 
L 1894 2003 
Q 2506 1872 2764 1633 
Q 3022 1394 3022 966 
Q 3022 478 2636 193 
Q 2250 -91 1575 -91 
Q 1294 -91 989 -36 
Q 684 19 347 128 
L 347 722 
Q 666 556 975 473 
Q 1284 391 1588 391 
Q 1994 391 2212 530 
Q 2431 669 2431 922 
Q 2431 1156 2273 1281 
Q 2116 1406 1581 1522 
L 1381 1569 
Q 847 1681 609 1914 
Q 372 2147 372 2553 
Q 372 3047 722 3315 
Q 1072 3584 1716 3584 
Q 2034 3584 2315 3537 
Q 2597 3491 2834 3397 
z
" transform="scale(0.015625)"/>
       <path id="DejaVuSans-29" d="M 513 4856 
L 1013 4856 
Q 1481 4119 1714 3412 
Q 1947 2706 1947 2009 
Q 1947 1309 1714 600 
Q 1481 -109 1013 -844 
L 513 -844 
Q 928 -128 1133 580 
Q 1338 1288 1338 2009 
Q 1338 2731 1133 3434 
Q 928 4138 513 4856 
z
" transform="scale(0.015625)"/>
      </defs>
      <use xlink:href="#DejaVuSans-394" transform="translate(0 0.684375)"/>
      <use xlink:href="#DejaVuSans-20" transform="translate(68.408203 0.684375)"/>
      <use xlink:href="#DejaVuSans-74" transform="translate(100.195312 0.684375)"/>
      <use xlink:href="#DejaVuSans-6e" transform="translate(139.404297 0.684375)"/>
      <use xlink:href="#DejaVuSans-74" transform="translate(202.783203 0.684375)"/>
      <use xlink:href="#DejaVuSans-72" transform="translate(241.992188 0.684375)"/>
      <use xlink:href="#DejaVuSans-20" transform="translate(283.105469 0.684375)"/>
      <use xlink:href="#DejaVuSans-20" transform="translate(314.892578 0.684375)"/>
      <use xlink:href="#DejaVuSans-28" transform="translate(346.679688 0.684375)"/>
      <use xlink:href="#DejaVuSans-4b" transform="translate(385.693359 0.684375)"/>
      <use xlink:href="#DejaVuSans-20" transform="translate(451.269531 0.684375)"/>
      <use xlink:href="#DejaVuSans-73" transform="translate(483.056641 0.684375)"/>
      <use xlink:href="#DejaVuSans-2212" transform="translate(536.113281 38.965625) scale(0.7)"/>
      <use xlink:href="#DejaVuSans-31" transform="translate(594.765625 38.965625) scale(0.7)"/>
      <use xlink:href="#DejaVuSans-29" transform="translate(642.036133 0.684375)"/>
     </g>
    </g>
    <g id="text_7">
     <!-- 1e−6 -->
     <g transform="translate(321.942187 485.284562) scale(0.1 -0.1)">
      <defs>
       <path id="DejaVuSans-65" d="M 3597 1894 
L 3597 1613 
L 953 1613 
Q 991 1019 1311 708 
Q 1631 397 2203 397 
Q 2534 397 2845 478 
Q 3156 559 3463 722 
L 3463 178 
Q 3153 47 2828 -22 
Q 2503 -91 2169 -91 
Q 1331 -91 842 396 
Q 353 884 353 1716 
Q 353 2575 817 3079 
Q 1281 3584 2069 3584 
Q 2775 3584 3186 3129 
Q 3597 2675 3597 1894 
z
M 3022 2063 
Q 3016 2534 2758 2815 
Q 2500 3097 2075 3097 
Q 1594 3097 1305 2825 
Q 1016 2553 972 2059 
L 3022 2063 
z
" transform="scale(0.015625)"/>
       <path id="DejaVuSans-36" d="M 2113 2584 
Q 1688 2584 1439 2293 
Q 1191 2003 1191 1497 
Q 1191 994 1439 701 
Q 1688 409 2113 409 
Q 2538 409 2786 701 
Q 3034 994 3034 1497 
Q 3034 2003 2786 2293 
Q 2538 2584 2113 2584 
z
M 3366 4563 
L 3366 3988 
Q 3128 4100 2886 4159 
Q 2644 4219 2406 4219 
Q 1781 4219 1451 3797 
Q 1122 3375 1075 2522 
Q 1259 2794 1537 2939 
Q 1816 3084 2150 3084 
Q 2853 3084 3261 2657 
Q 3669 2231 3669 1497 
Q 3669 778 3244 343 
Q 2819 -91 2113 -91 
Q 1303 -91 875 529 
Q 447 1150 447 2328 
Q 447 3434 972 4092 
Q 1497 4750 2381 4750 
Q 2619 4750 2861 4703 
Q 3103 4656 3366 4563 
z
" transform="scale(0.015625)"/>
      </defs>
      <use xlink:href="#DejaVuSans-31"/>
      <use xlink:href="#DejaVuSans-65" transform="translate(63.623047 0)"/>
      <use xlink:href="#DejaVuSans-2212" transform="translate(125.146484 0)"/>
      <use xlink:href="#DejaVuSans-36" transform="translate(208.935547 0)"/>
     </g>
    </g>
   </g>
   <g id="matplotlib.axis_2">
    <g id="ytick_1">
     <g id="line2d_6">
      <defs>
       <path id="me8dd26dddf" d="M 0 0 
L -3.5 0 
" style="stroke: #000000; stroke-width: 0.8"/>
      </defs>
      <g>
       <use xlink:href="#me8dd26dddf" x="44.66" y="64.975556" style="stroke: #000000; stroke-width: 0.8"/>
      </g>
     </g>
     <g id="text_8">
      <!-- 16 -->
      <g transform="translate(24.935 68.774774) scale(0.1 -0.1)">
       <use xlink:href="#DejaVuSans-31"/>
       <use xlink:href="#DejaVuSans-36" transform="translate(63.623047 0)"/>
      </g>
     </g>
    </g>
    <g id="ytick_2">
     <g id="line2d_7">
      <g>
       <use xlink:href="#me8dd26dddf" x="44.66" y="111.214667" style="stroke: #000000; stroke-width: 0.8"/>
      </g>
     </g>
     <g id="text_9">
      <!-- 18 -->
      <g transform="translate(24.935 115.013885) scale(0.1 -0.1)">
       <defs>
        <path id="DejaVuSans-38" d="M 2034 2216 
Q 1584 2216 1326 1975 
Q 1069 1734 1069 1313 
Q 1069 891 1326 650 
Q 1584 409 2034 409 
Q 2484 409 2743 651 
Q 3003 894 3003 1313 
Q 3003 1734 2745 1975 
Q 2488 2216 2034 2216 
z
M 1403 2484 
Q 997 2584 770 2862 
Q 544 3141 544 3541 
Q 544 4100 942 4425 
Q 1341 4750 2034 4750 
Q 2731 4750 3128 4425 
Q 3525 4100 3525 3541 
Q 3525 3141 3298 2862 
Q 3072 2584 2669 2484 
Q 3125 2378 3379 2068 
Q 3634 1759 3634 1313 
Q 3634 634 3220 271 
Q 2806 -91 2034 -91 
Q 1263 -91 848 271 
Q 434 634 434 1313 
Q 434 1759 690 2068 
Q 947 2378 1403 2484 
z
M 1172 3481 
Q 1172 3119 1398 2916 
Q 1625 2713 2034 2713 
Q 2441 2713 2670 2916 
Q 2900 3119 2900 3481 
Q 2900 3844 2670 4047 
Q 2441 4250 2034 4250 
Q 1625 4250 1398 4047 
Q 1172 3844 1172 3481 
z
" transform="scale(0.015625)"/>
       </defs>
       <use xlink:href="#DejaVuSans-31"/>
       <use xlink:href="#DejaVuSans-38" transform="translate(63.623047 0)"/>
      </g>
     </g>
    </g>
    <g id="ytick_3">
     <g id="line2d_8">
      <g>
       <use xlink:href="#me8dd26dddf" x="44.66" y="157.453778" style="stroke: #000000; stroke-width: 0.8"/>
      </g>
     </g>
     <g id="text_10">
      <!-- 20 -->
      <g transform="translate(24.935 161.252997) scale(0.1 -0.1)">
       <use xlink:href="#DejaVuSans-32"/>
       <use xlink:href="#DejaVuSans-30" transform="translate(63.623047 0)"/>
      </g>
     </g>
    </g>
    <g id="ytick_4">
     <g id="line2d_9">
      <g>
       <use xlink:href="#me8dd26dddf" x="44.66" y="203.692889" style="stroke: #000000; stroke-width: 0.8"/>
      </g>
     </g>
     <g id="text_11">
      <!-- 22 -->
      <g transform="translate(24.935 207.492108) scale(0.1 -0.1)">
       <use xlink:href="#DejaVuSans-32"/>
       <use xlink:href="#DejaVuSans-32" transform="translate(63.623047 0)"/>
      </g>
     </g>
    </g>
    <g id="ytick_5">
     <g id="line2d_10">
      <g>
       <use xlink:href="#me8dd26dddf" x="44.66" y="249.932" style="stroke: #000000; stroke-width: 0.8"/>
      </g>
     </g>
     <g id="text_12">
      <!-- 24 -->
      <g transform="translate(24.935 253.731219) scale(0.1 -0.1)">
       <defs>
        <path id="DejaVuSans-34" d="M 2419 4116 
L 825 1625 
L 2419 1625 
L 2419 4116 
z
M 2253 4666 
L 3047 4666 
L 3047 1625 
L 3713 1625 
L 3713 1100 
L 3047 1100 
L 3047 0 
L 2419 0 
L 2419 1100 
L 313 1100 
L 313 1709 
L 2253 4666 
z
" transform="scale(0.015625)"/>
       </defs>
       <use xlink:href="#DejaVuSans-32"/>
       <use xlink:href="#DejaVuSans-34" transform="translate(63.623047 0)"/>
      </g>
     </g>
    </g>
    <g id="ytick_6">
     <g id="line2d_11">
      <g>
       <use xlink:href="#me8dd26dddf" x="44.66" y="296.171111" style="stroke: #000000; stroke-width: 0.8"/>
      </g>
     </g>
     <g id="text_13">
      <!-- 26 -->
      <g transform="translate(24.935 299.97033) scale(0.1 -0.1)">
       <use xlink:href="#DejaVuSans-32"/>
       <use xlink:href="#DejaVuSans-36" transform="translate(63.623047 0)"/>
      </g>
     </g>
    </g>
    <g id="ytick_7">
     <g id="line2d_12">
      <g>
       <use xlink:href="#me8dd26dddf" x="44.66" y="342.410222" style="stroke: #000000; stroke-width: 0.8"/>
      </g>
     </g>
     <g id="text_14">
      <!-- 28 -->
      <g transform="translate(24.935 346.209441) scale(0.1 -0.1)">
       <use xlink:href="#DejaVuSans-32"/>
       <use xlink:href="#DejaVuSans-38" transform="translate(63.623047 0)"/>
      </g>
     </g>
    </g>
    <g id="ytick_8">
     <g id="line2d_13">
      <g>
       <use xlink:href="#me8dd26dddf" x="44.66" y="388.649333" style="stroke: #000000; stroke-width: 0.8"/>
      </g>
     </g>
     <g id="text_15">
      <!-- 30 -->
      <g transform="translate(24.935 392.448552) scale(0.1 -0.1)">
       <defs>
        <path id="DejaVuSans-33" d="M 2597 2516 
Q 3050 2419 3304 2112 
Q 3559 1806 3559 1356 
Q 3559 666 3084 287 
Q 2609 -91 1734 -91 
Q 1441 -91 1130 -33 
Q 819 25 488 141 
L 488 750 
Q 750 597 1062 519 
Q 1375 441 1716 441 
Q 2309 441 2620 675 
Q 2931 909 2931 1356 
Q 2931 1769 2642 2001 
Q 2353 2234 1838 2234 
L 1294 2234 
L 1294 2753 
L 1863 2753 
Q 2328 2753 2575 2939 
Q 2822 3125 2822 3475 
Q 2822 3834 2567 4026 
Q 2313 4219 1838 4219 
Q 1578 4219 1281 4162 
Q 984 4106 628 3988 
L 628 4550 
Q 988 4650 1302 4700 
Q 1616 4750 1894 4750 
Q 2613 4750 3031 4423 
Q 3450 4097 3450 3541 
Q 3450 3153 3228 2886 
Q 3006 2619 2597 2516 
z
" transform="scale(0.015625)"/>
       </defs>
       <use xlink:href="#DejaVuSans-33"/>
       <use xlink:href="#DejaVuSans-30" transform="translate(63.623047 0)"/>
      </g>
     </g>
    </g>
    <g id="ytick_9">
     <g id="line2d_14">
      <g>
       <use xlink:href="#me8dd26dddf" x="44.66" y="434.888444" style="stroke: #000000; stroke-width: 0.8"/>
      </g>
     </g>
     <g id="text_16">
      <!-- 32 -->
      <g transform="translate(24.935 438.687663) scale(0.1 -0.1)">
       <use xlink:href="#DejaVuSans-33"/>
       <use xlink:href="#DejaVuSans-32" transform="translate(63.623047 0)"/>
      </g>
     </g>
    </g>
    <g id="text_17">
     <!-- Altitude (km) -->
     <g transform="translate(18.855313 282.726531) rotate(-90) scale(0.1 -0.1)">
      <defs>
       <path id="DejaVuSans-41" d="M 2188 4044 
L 1331 1722 
L 3047 1722 
L 2188 4044 
z
M 1831 4666 
L 2547 4666 
L 4325 0 
L 3669 0 
L 3244 1197 
L 1141 1197 
L 716 0 
L 50 0 
L 1831 4666 
z
" transform="scale(0.015625)"/>
       <path id="DejaVuSans-6c" d="M 603 4863 
L 1178 4863 
L 1178 0 
L 603 0 
L 603 4863 
z
" transform="scale(0.015625)"/>
       <path id="DejaVuSans-69" d="M 603 3500 
L 1178 3500 
L 1178 0 
L 603 0 
L 603 3500 
z
M 603 4863 
L 1178 4863 
L 1178 4134 
L 603 4134 
L 603 4863 
z
" transform="scale(0.015625)"/>
       <path id="DejaVuSans-75" d="M 544 1381 
L 544 3500 
L 1119 3500 
L 1119 1403 
Q 1119 906 1312 657 
Q 1506 409 1894 409 
Q 2359 409 2629 706 
Q 2900 1003 2900 1516 
L 2900 3500 
L 3475 3500 
L 3475 0 
L 2900 0 
L 2900 538 
Q 2691 219 2414 64 
Q 2138 -91 1772 -91 
Q 1169 -91 856 284 
Q 544 659 544 1381 
z
M 1991 3584 
L 1991 3584 
z
" transform="scale(0.015625)"/>
       <path id="DejaVuSans-64" d="M 2906 2969 
L 2906 4863 
L 3481 4863 
L 3481 0 
L 2906 0 
L 2906 525 
Q 2725 213 2448 61 
Q 2172 -91 1784 -91 
Q 1150 -91 751 415 
Q 353 922 353 1747 
Q 353 2572 751 3078 
Q 1150 3584 1784 3584 
Q 2172 3584 2448 3432 
Q 2725 3281 2906 2969 
z
M 947 1747 
Q 947 1113 1208 752 
Q 1469 391 1925 391 
Q 2381 391 2643 752 
Q 2906 1113 2906 1747 
Q 2906 2381 2643 2742 
Q 2381 3103 1925 3103 
Q 1469 3103 1208 2742 
Q 947 2381 947 1747 
z
" transform="scale(0.015625)"/>
       <path id="DejaVuSans-6b" d="M 581 4863 
L 1159 4863 
L 1159 1991 
L 2875 3500 
L 3609 3500 
L 1753 1863 
L 3688 0 
L 2938 0 
L 1159 1709 
L 1159 0 
L 581 0 
L 581 4863 
z
" transform="scale(0.015625)"/>
       <path id="DejaVuSans-6d" d="M 3328 2828 
Q 3544 3216 3844 3400 
Q 4144 3584 4550 3584 
Q 5097 3584 5394 3201 
Q 5691 2819 5691 2113 
L 5691 0 
L 5113 0 
L 5113 2094 
Q 5113 2597 4934 2840 
Q 4756 3084 4391 3084 
Q 3944 3084 3684 2787 
Q 3425 2491 3425 1978 
L 3425 0 
L 2847 0 
L 2847 2094 
Q 2847 2600 2669 2842 
Q 2491 3084 2119 3084 
Q 1678 3084 1418 2786 
Q 1159 2488 1159 1978 
L 1159 0 
L 581 0 
L 581 3500 
L 1159 3500 
L 1159 2956 
Q 1356 3278 1631 3431 
Q 1906 3584 2284 3584 
Q 2666 3584 2933 3390 
Q 3200 3197 3328 2828 
z
" transform="scale(0.015625)"/>
      </defs>
      <use xlink:href="#DejaVuSans-41"/>
      <use xlink:href="#DejaVuSans-6c" transform="translate(68.408203 0)"/>
      <use xlink:href="#DejaVuSans-74" transform="translate(96.191406 0)"/>
      <use xlink:href="#DejaVuSans-69" transform="translate(135.400391 0)"/>
      <use xlink:href="#DejaVuSans-74" transform="translate(163.183594 0)"/>
      <use xlink:href="#DejaVuSans-75" transform="translate(202.392578 0)"/>
      <use xlink:href="#DejaVuSans-64" transform="translate(265.771484 0)"/>
      <use xlink:href="#DejaVuSans-65" transform="translate(329.248047 0)"/>
      <use xlink:href="#DejaVuSans-20" transform="translate(390.771484 0)"/>
      <use xlink:href="#DejaVuSans-28" transform="translate(422.558594 0)"/>
      <use xlink:href="#DejaVuSans-6b" transform="translate(461.572266 0)"/>
      <use xlink:href="#DejaVuSans-6d" transform="translate(519.482422 0)"/>
      <use xlink:href="#DejaVuSans-29" transform="translate(616.894531 0)"/>
     </g>
    </g>
   </g>
   <g id="line2d_15">
    <path d="M 205.948061 505 
L 205.948061 504.152923 
L 205.948061 476.215428 
L 205.948061 450.373123 
L 205.948061 426.332297 
L 205.948061 403.857074 
L 205.948061 382.755276 
L 205.948061 362.868074 
L 205.948061 344.062901 
L 205.948061 326.227803 
L 205.948061 309.267273 
L 205.948061 293.099428 
L 205.948061 277.653328 
L 205.948061 262.867111 
L 205.948061 248.686662 
L 205.948061 235.064256 
L 205.948061 221.957462 
L 205.948061 209.328719 
L 205.948061 197.144274 
L 205.948061 185.373904 
L 205.948061 173.990374 
L 205.948061 162.969024 
L 205.948061 152.287496 
L 205.948061 141.925454 
L 205.948061 131.864282 
L 205.948061 122.086939 
L 205.948061 112.578019 
L 205.948061 103.322843 
L 205.948061 94.30839 
L 205.948061 85.52202 
L 205.948061 76.952354 
L 205.948061 68.588617 
L 205.948061 60.420698 
L 205.948061 52.438991 
L 205.948061 44.634292 
L 205.948061 36.99789 
L 205.948061 29.521009 
L 205.948061 22.195621 
L 205.948061 15.013093 
L 205.948061 7.965341 
L 205.948061 1.043824 
L 205.948061 -1 
" clip-path="url(#p5e4cf0e9b7)" style="fill: none; stroke: #440154; stroke-width: 1.5; stroke-linecap: square"/>
   </g>
   <g id="line2d_16">
    <path d="M 203.032638 505 
L 203.009826 504.152923 
L 205.311169 476.215428 
L 209.186938 450.373123 
L 210.118234 426.332297 
L 209.976559 403.857074 
L 208.652819 382.755276 
L 207.43948 362.868074 
L 206.725862 344.062901 
L 206.679718 326.227803 
L 206.648688 309.267273 
L 206.666856 293.099428 
L 206.626595 277.653328 
L 206.745146 262.867111 
L 206.918371 248.686662 
L 206.966321 235.064256 
L 206.040847 221.957462 
L 205.546755 209.328719 
L 207.180354 197.144274 
L 208.257783 185.373904 
L 208.967217 173.990374 
L 209.310703 162.969024 
L 209.33255 152.287496 
L 209.477578 141.925454 
L 210.369004 131.864282 
L 210.516245 122.086939 
L 210.438812 112.578019 
L 210.52386 103.322843 
L 210.55145 94.30839 
L 210.382473 85.52202 
L 210.205841 76.952354 
L 210.038228 68.588617 
L 209.69306 60.420698 
L 209.53281 52.438991 
L 209.420275 44.634292 
L 208.987771 36.99789 
L 208.135038 29.521009 
L 207.302385 22.195621 
L 206.67868 15.013093 
L 206.021721 7.965341 
L 205.603187 1.043824 
L 205.505782 -1 
" clip-path="url(#p5e4cf0e9b7)" style="fill: none; stroke: #46327e; stroke-width: 1.5; stroke-linecap: square"/>
   </g>
   <g id="line2d_17">
    <path d="M 203.220113 505 
L 203.217361 504.152923 
L 204.592529 476.215428 
L 209.454747 450.373123 
L 212.842048 426.332297 
L 212.669621 403.857074 
L 211.072189 382.755276 
L 210.364554 362.868074 
L 210.650659 344.062901 
L 209.567007 326.227803 
L 208.119353 309.267273 
L 207.64066 293.099428 
L 207.161769 277.653328 
L 206.964475 262.867111 
L 207.151122 248.686662 
L 207.650874 235.064256 
L 206.255718 221.957462 
L 205.300405 209.328719 
L 208.157452 197.144274 
L 209.057476 185.373904 
L 209.585869 173.990374 
L 210.085718 162.969024 
L 209.37698 152.287496 
L 208.909374 141.925454 
L 210.574529 131.864282 
L 210.90072 122.086939 
L 210.430574 112.578019 
L 210.460316 103.322843 
L 210.566006 94.30839 
L 210.541966 85.52202 
L 211.038761 76.952354 
L 212.011161 68.588617 
L 212.214053 60.420698 
L 211.768284 52.438991 
L 211.820876 44.634292 
L 211.728125 36.99789 
L 211.060528 29.521009 
L 210.58805 22.195621 
L 210.232194 15.013093 
L 209.187694 7.965341 
L 206.661449 1.043824 
L 206.018199 -1 
" clip-path="url(#p5e4cf0e9b7)" style="fill: none; stroke: #365c8d; stroke-width: 1.5; stroke-linecap: square"/>
   </g>
   <g id="line2d_18">
    <path d="M 204.554328 505 
L 204.556811 504.152923 
L 205.943318 476.215428 
L 208.411029 450.373123 
L 209.191374 426.332297 
L 210.027662 403.857074 
L 209.90204 382.755276 
L 208.924532 362.868074 
L 208.016354 344.062901 
L 207.839672 326.227803 
L 207.623257 309.267273 
L 207.299456 293.099428 
L 207.016027 277.653328 
L 206.573189 262.867111 
L 206.360718 248.686662 
L 206.401073 235.064256 
L 206.357413 221.957462 
L 205.963988 209.328719 
L 207.117233 197.144274 
L 207.772751 185.373904 
L 208.440364 173.990374 
L 209.059725 162.969024 
L 209.206954 152.287496 
L 209.526039 141.925454 
L 210.442168 131.864282 
L 211.125697 122.086939 
L 211.624591 112.578019 
L 212.043492 103.322843 
L 212.125973 94.30839 
L 212.010134 85.52202 
L 212.12026 76.952354 
L 212.505538 68.588617 
L 212.247748 60.420698 
L 211.576354 52.438991 
L 210.84146 44.634292 
L 209.386526 36.99789 
L 208.350294 29.521009 
L 208.786278 22.195621 
L 209.534266 15.013093 
L 209.229125 7.965341 
L 206.736381 1.043824 
L 206.060282 -1 
" clip-path="url(#p5e4cf0e9b7)" style="fill: none; stroke: #277f8e; stroke-width: 1.5; stroke-linecap: square"/>
   </g>
   <g id="line2d_19">
    <path d="M 208.596891 505 
L 208.655889 504.152923 
L 211.542396 476.215428 
L 215.308633 450.373123 
L 215.103675 426.332297 
L 213.073154 403.857074 
L 211.59555 382.755276 
L 211.053434 362.868074 
L 210.478824 344.062901 
L 210.134491 326.227803 
L 209.85724 309.267273 
L 209.256041 293.099428 
L 208.818648 277.653328 
L 208.463575 262.867111 
L 208.219948 248.686662 
L 208.300723 235.064256 
L 207.73929 221.957462 
L 206.526632 209.328719 
L 207.810653 197.144274 
L 208.401591 185.373904 
L 209.26616 173.990374 
L 210.251017 162.969024 
L 211.269686 152.287496 
L 212.181877 141.925454 
L 213.989849 131.864282 
L 214.917717 122.086939 
L 215.129947 112.578019 
L 215.373676 103.322843 
L 215.390055 94.30839 
L 214.992976 85.52202 
L 214.961369 76.952354 
L 215.445175 68.588617 
L 215.778251 60.420698 
L 215.662232 52.438991 
L 214.67771 44.634292 
L 212.896502 36.99789 
L 211.445146 29.521009 
L 211.572434 22.195621 
L 212.057774 15.013093 
L 210.402503 7.965341 
L 204.653854 1.043824 
L 203.146612 -1 
" clip-path="url(#p5e4cf0e9b7)" style="fill: none; stroke: #1fa187; stroke-width: 1.5; stroke-linecap: square"/>
   </g>
   <g id="line2d_20">
    <path d="M 202.253192 505 
L 202.247028 504.152923 
L 203.589149 476.215428 
L 207.109025 450.373123 
L 209.869217 426.332297 
L 209.480577 403.857074 
L 208.687627 382.755276 
L 207.770615 362.868074 
L 206.992125 344.062901 
L 207.094968 326.227803 
L 208.228874 309.267273 
L 208.095805 293.099428 
L 207.916382 277.653328 
L 207.680025 262.867111 
L 207.589143 248.686662 
L 207.393716 235.064256 
L 207.847415 221.957462 
L 208.990206 209.328719 
L 208.100816 197.144274 
L 206.834263 185.373904 
L 206.476341 173.990374 
L 206.124837 162.969024 
L 206.436784 152.287496 
L 207.111151 141.925454 
L 207.662811 131.864282 
L 208.117179 122.086939 
L 209.502929 112.578019 
L 210.861321 103.322843 
L 211.793331 94.30839 
L 212.411569 85.52202 
L 212.57424 76.952354 
L 212.550394 68.588617 
L 212.841368 60.420698 
L 213.581925 52.438991 
L 212.908451 44.634292 
L 210.653358 36.99789 
L 209.306392 29.521009 
L 210.513101 22.195621 
L 212.578432 15.013093 
L 212.916199 7.965341 
L 208.519755 1.043824 
L 207.009884 -1 
" clip-path="url(#p5e4cf0e9b7)" style="fill: none; stroke: #4ac16d; stroke-width: 1.5; stroke-linecap: square"/>
   </g>
   <g id="line2d_21">
    <path d="M 204.643193 505 
L 204.735903 504.152923 
L 209.712735 476.215428 
L 211.802168 450.373123 
L 212.689197 426.332297 
L 213.771533 403.857074 
L 213.766562 382.755276 
L 214.049788 362.868074 
L 213.523277 344.062901 
L 212.736963 326.227803 
L 211.35091 309.267273 
L 210.867912 293.099428 
L 210.542495 277.653328 
L 210.100363 262.867111 
L 209.541142 248.686662 
L 208.834002 235.064256 
L 208.670597 221.957462 
L 209.469179 209.328719 
L 208.234595 197.144274 
L 207.810608 185.373904 
L 207.580794 173.990374 
L 207.370905 162.969024 
L 208.12471 152.287496 
L 209.3226 141.925454 
L 210.393235 131.864282 
L 212.00155 122.086939 
L 214.46155 112.578019 
L 216.938791 103.322843 
L 219.200766 94.30839 
L 220.896187 85.52202 
L 222.160788 76.952354 
L 223.326779 68.588617 
L 225.045084 60.420698 
L 226.936034 52.438991 
L 226.590829 44.634292 
L 223.835681 36.99789 
L 221.461996 29.521009 
L 222.65521 22.195621 
L 225.661639 15.013093 
L 226.45865 7.965341 
L 219.24252 1.043824 
L 216.526983 -1 
" clip-path="url(#p5e4cf0e9b7)" style="fill: none; stroke: #a0da39; stroke-width: 1.5; stroke-linecap: square"/>
   </g>
   <g id="line2d_22">
    <path d="M 206.146268 505 
L 206.285588 504.152923 
L 212.173851 476.215428 
L 216.588107 450.373123 
L 219.234783 426.332297 
L 219.504164 403.857074 
L 218.338917 382.755276 
L 216.746662 362.868074 
L 214.887654 344.062901 
L 213.552164 326.227803 
L 213.952356 309.267273 
L 213.402535 293.099428 
L 212.649786 277.653328 
L 212.112574 262.867111 
L 211.791042 248.686662 
L 211.703904 235.064256 
L 211.480673 221.957462 
L 207.216159 209.328719 
L 207.58904 197.144274 
L 209.576417 185.373904 
L 209.936928 173.990374 
L 210.882651 162.969024 
L 212.115417 152.287496 
L 212.855198 141.925454 
L 215.518612 131.864282 
L 219.591846 122.086939 
L 220.667714 112.578019 
L 221.964223 103.322843 
L 222.750281 94.30839 
L 222.412676 85.52202 
L 222.021466 76.952354 
L 223.691281 68.588617 
L 226.782413 60.420698 
L 229.834562 52.438991 
L 231.288993 44.634292 
L 230.053939 36.99789 
L 227.044418 29.521009 
L 226.791292 22.195621 
L 228.827568 15.013093 
L 228.462243 7.965341 
L 218.412069 1.043824 
L 215.011042 -1 
" clip-path="url(#p5e4cf0e9b7)" style="fill: none; stroke: #fde725; stroke-width: 1.5; stroke-linecap: square"/>
   </g>
   <g id="line2d_23">
    <path d="M 205.948061 458.008 
L 205.948061 41.856 
" clip-path="url(#p5e4cf0e9b7)" style="fill: none; stroke-dasharray: 2.96,1.28; stroke-dashoffset: 0; stroke: #000000; stroke-width: 0.8"/>
   </g>
   <g id="patch_3">
    <path d="M 44.66 458.008 
L 44.66 41.856 
" style="fill: none; stroke: #000000; stroke-width: 0.8; stroke-linejoin: miter; stroke-linecap: square"/>
   </g>
   <g id="patch_4">
    <path d="M 349.2 458.008 
L 349.2 41.856 
" style="fill: none; stroke: #000000; stroke-width: 0.8; stroke-linejoin: miter; stroke-linecap: square"/>
   </g>
   <g id="patch_5">
    <path d="M 44.66 458.008 
L 349.2 458.008 
" style="fill: none; stroke: #000000; stroke-width: 0.8; stroke-linejoin: miter; stroke-linecap: square"/>
   </g>
   <g id="patch_6">
    <path d="M 44.66 41.856 
L 349.2 41.856 
" style="fill: none; stroke: #000000; stroke-width: 0.8; stroke-linejoin: miter; stroke-linecap: square"/>
   </g>
   <g id="text_18">
    <!-- Global-mean radiative-heating anomaly by decade -->
    <g transform="translate(44.229062 22.418625) scale(0.12 -0.12)">
     <defs>
      <path id="DejaVuSans-47" d="M 3809 666 
L 3809 1919 
L 2778 1919 
L 2778 2438 
L 4434 2438 
L 4434 434 
Q 4069 175 3628 42 
Q 3188 -91 2688 -91 
Q 1594 -91 976 548 
Q 359 1188 359 2328 
Q 359 3472 976 4111 
Q 1594 4750 2688 4750 
Q 3144 4750 3555 4637 
Q 3966 4525 4313 4306 
L 4313 3634 
Q 3963 3931 3569 4081 
Q 3175 4231 2741 4231 
Q 1884 4231 1454 3753 
Q 1025 3275 1025 2328 
Q 1025 1384 1454 906 
Q 1884 428 2741 428 
Q 3075 428 3337 486 
Q 3600 544 3809 666 
z
" transform="scale(0.015625)"/>
      <path id="DejaVuSans-6f" d="M 1959 3097 
Q 1497 3097 1228 2736 
Q 959 2375 959 1747 
Q 959 1119 1226 758 
Q 1494 397 1959 397 
Q 2419 397 2687 759 
Q 2956 1122 2956 1747 
Q 2956 2369 2687 2733 
Q 2419 3097 1959 3097 
z
M 1959 3584 
Q 2709 3584 3137 3096 
Q 3566 2609 3566 1747 
Q 3566 888 3137 398 
Q 2709 -91 1959 -91 
Q 1206 -91 779 398 
Q 353 888 353 1747 
Q 353 2609 779 3096 
Q 1206 3584 1959 3584 
z
" transform="scale(0.015625)"/>
      <path id="DejaVuSans-62" d="M 3116 1747 
Q 3116 2381 2855 2742 
Q 2594 3103 2138 3103 
Q 1681 3103 1420 2742 
Q 1159 2381 1159 1747 
Q 1159 1113 1420 752 
Q 1681 391 2138 391 
Q 2594 391 2855 752 
Q 3116 1113 3116 1747 
z
M 1159 2969 
Q 1341 3281 1617 3432 
Q 1894 3584 2278 3584 
Q 2916 3584 3314 3078 
Q 3713 2572 3713 1747 
Q 3713 922 3314 415 
Q 2916 -91 2278 -91 
Q 1894 -91 1617 61 
Q 1341 213 1159 525 
L 1159 0 
L 581 0 
L 581 4863 
L 1159 4863 
L 1159 2969 
z
" transform="scale(0.015625)"/>
      <path id="DejaVuSans-61" d="M 2194 1759 
Q 1497 1759 1228 1600 
Q 959 1441 959 1056 
Q 959 750 1161 570 
Q 1363 391 1709 391 
Q 2188 391 2477 730 
Q 2766 1069 2766 1631 
L 2766 1759 
L 2194 1759 
z
M 3341 1997 
L 3341 0 
L 2766 0 
L 2766 531 
Q 2569 213 2275 61 
Q 1981 -91 1556 -91 
Q 1019 -91 701 211 
Q 384 513 384 1019 
Q 384 1609 779 1909 
Q 1175 2209 1959 2209 
L 2766 2209 
L 2766 2266 
Q 2766 2663 2505 2880 
Q 2244 3097 1772 3097 
Q 1472 3097 1187 3025 
Q 903 2953 641 2809 
L 641 3341 
Q 956 3463 1253 3523 
Q 1550 3584 1831 3584 
Q 2591 3584 2966 3190 
Q 3341 2797 3341 1997 
z
" transform="scale(0.015625)"/>
      <path id="DejaVuSans-2d" d="M 313 2009 
L 1997 2009 
L 1997 1497 
L 313 1497 
L 313 2009 
z
" transform="scale(0.015625)"/>
      <path id="DejaVuSans-76" d="M 191 3500 
L 800 3500 
L 1894 563 
L 2988 3500 
L 3597 3500 
L 2284 0 
L 1503 0 
L 191 3500 
z
" transform="scale(0.015625)"/>
      <path id="DejaVuSans-68" d="M 3513 2113 
L 3513 0 
L 2938 0 
L 2938 2094 
Q 2938 2591 2744 2837 
Q 2550 3084 2163 3084 
Q 1697 3084 1428 2787 
Q 1159 2491 1159 1978 
L 1159 0 
L 581 0 
L 581 4863 
L 1159 4863 
L 1159 2956 
Q 1366 3272 1645 3428 
Q 1925 3584 2291 3584 
Q 2894 3584 3203 3211 
Q 3513 2838 3513 2113 
z
" transform="scale(0.015625)"/>
      <path id="DejaVuSans-67" d="M 2906 1791 
Q 2906 2416 2648 2759 
Q 2391 3103 1925 3103 
Q 1463 3103 1205 2759 
Q 947 2416 947 1791 
Q 947 1169 1205 825 
Q 1463 481 1925 481 
Q 2391 481 2648 825 
Q 2906 1169 2906 1791 
z
M 3481 434 
Q 3481 -459 3084 -895 
Q 2688 -1331 1869 -1331 
Q 1566 -1331 1297 -1286 
Q 1028 -1241 775 -1147 
L 775 -588 
Q 1028 -725 1275 -790 
Q 1522 -856 1778 -856 
Q 2344 -856 2625 -561 
Q 2906 -266 2906 331 
L 2906 616 
Q 2728 306 2450 153 
Q 2172 0 1784 0 
Q 1141 0 747 490 
Q 353 981 353 1791 
Q 353 2603 747 3093 
Q 1141 3584 1784 3584 
Q 2172 3584 2450 3431 
Q 2728 3278 2906 2969 
L 2906 3500 
L 3481 3500 
L 3481 434 
z
" transform="scale(0.015625)"/>
      <path id="DejaVuSans-79" d="M 2059 -325 
Q 1816 -950 1584 -1140 
Q 1353 -1331 966 -1331 
L 506 -1331 
L 506 -850 
L 844 -850 
Q 1081 -850 1212 -737 
Q 1344 -625 1503 -206 
L 1606 56 
L 191 3500 
L 800 3500 
L 1894 763 
L 2988 3500 
L 3597 3500 
L 2059 -325 
z
" transform="scale(0.015625)"/>
      <path id="DejaVuSans-63" d="M 3122 3366 
L 3122 2828 
Q 2878 2963 2633 3030 
Q 2388 3097 2138 3097 
Q 1578 3097 1268 2742 
Q 959 2388 959 1747 
Q 959 1106 1268 751 
Q 1578 397 2138 397 
Q 2388 397 2633 464 
Q 2878 531 3122 666 
L 3122 134 
Q 2881 22 2623 -34 
Q 2366 -91 2075 -91 
Q 1284 -91 818 406 
Q 353 903 353 1747 
Q 353 2603 823 3093 
Q 1294 3584 2113 3584 
Q 2378 3584 2631 3529 
Q 2884 3475 3122 3366 
z
" transform="scale(0.015625)"/>
     </defs>
     <use xlink:href="#DejaVuSans-47"/>
     <use xlink:href="#DejaVuSans-6c" transform="translate(77.490234 0)"/>
     <use xlink:href="#DejaVuSans-6f" transform="translate(105.273438 0)"/>
     <use xlink:href="#DejaVuSans-62" transform="translate(166.455078 0)"/>
     <use xlink:href="#DejaVuSans-61" transform="translate(229.931641 0)"/>
     <use xlink:href="#DejaVuSans-6c" transform="translate(291.210938 0)"/>
     <use xlink:href="#DejaVuSans-2d" transform="translate(318.994141 0)"/>
     <use xlink:href="#DejaVuSans-6d" transform="translate(355.078125 0)"/>
     <use xlink:href="#DejaVuSans-65" transform="translate(452.490234 0)"/>
     <use xlink:href="#DejaVuSans-61" transform="translate(514.013672 0)"/>
     <use xlink:href="#DejaVuSans-6e" transform="translate(575.292969 0)"/>
     <use xlink:href="#DejaVuSans-20" transform="translate(638.671875 0)"/>
     <use xlink:href="#DejaVuSans-72" transform="translate(670.458984 0)"/>
     <use xlink:href="#DejaVuSans-61" transform="translate(711.572266 0)"/>
     <use xlink:href="#DejaVuSans-64" transform="translate(772.851562 0)"/>
     <use xlink:href="#DejaVuSans-69" transform="translate(836.328125 0)"/>
     <use xlink:href="#DejaVuSans-61" transform="translate(864.111328 0)"/>
     <use xlink:href="#DejaVuSans-74" transform="translate(925.390625 0)"/>
     <use xlink:href="#DejaVuSans-69" transform="translate(964.599609 0)"/>
     <use xlink:href="#DejaVuSans-76" transform="translate(992.382812 0)"/>
     <use xlink:href="#DejaVuSans-65" transform="translate(1051.5625 0)"/>
     <use xlink:href="#DejaVuSans-2d" transform="translate(1113.085938 0)"/>
     <use xlink:href="#DejaVuSans-68" transform="translate(1149.169922 0)"/>
     <use xlink:href="#DejaVuSans-65" transform="translate(1212.548828 0)"/>
     <use xlink:href="#DejaVuSans-61" transform="translate(1274.072266 0)"/>
     <use xlink:href="#DejaVuSans-74" transform="translate(1335.351562 0)"/>
     <use xlink:href="#DejaVuSans-69" transform="translate(1374.560547 0)"/>
     <use xlink:href="#DejaVuSans-6e" transform="translate(1402.34375 0)"/>
     <use xlink:href="#DejaVuSans-67" transform="translate(1465.722656 0)"/>
     <use xlink:href="#DejaVuSans-20" transform="translate(1529.199219 0)"/>
     <use xlink:href="#DejaVuSans-61" transform="translate(1560.986328 0)"/>
     <use xlink:href="#DejaVuSans-6e" transform="translate(1622.265625 0)"/>
     <use xlink:href="#DejaVuSans-6f" transform="translate(1685.644531 0)"/>
     <use xlink:href="#DejaVuSans-6d" transform="translate(1746.826172 0)"/>
     <use xlink:href="#DejaVuSans-61" transform="translate(1844.238281 0)"/>
     <use xlink:href="#DejaVuSans-6c" transform="translate(1905.517578 0)"/>
     <use xlink:href="#DejaVuSans-79" transform="translate(1933.300781 0)"/>
     <use xlink:href="#DejaVuSans-20" transform="translate(1992.480469 0)"/>
     <use xlink:href="#DejaVuSans-62" transform="translate(2024.267578 0)"/>
     <use xlink:href="#DejaVuSans-79" transform="translate(2087.744141 0)"/>
     <use xlink:href="#DejaVuSans-20" transform="translate(2146.923828 0)"/>
     <use xlink:href="#DejaVuSans-64" transform="translate(2178.710938 0)"/>
     <use xlink:href="#DejaVuSans-65" transform="translate(2242.1875 0)"/>
     <use xlink:href="#DejaVuSans-63" transform="translate(2303.710938 0)"/>
     <use xlink:href="#DejaVuSans-61" transform="translate(2358.691406 0)"/>
     <use xlink:href="#DejaVuSans-64" transform="translate(2419.970703 0)"/>
     <use xlink:href="#DejaVuSans-65" transform="translate(2483.447266 0)"/>
    </g>
    <!-- (G6sulfur – G6solar) -->
    <g transform="translate(136.917812 35.856) scale(0.12 -0.12)">
     <defs>
      <path id="DejaVuSans-66" d="M 2375 4863 
L 2375 4384 
L 1825 4384 
Q 1516 4384 1395 4259 
Q 1275 4134 1275 3809 
L 1275 3500 
L 2222 3500 
L 2222 3053 
L 1275 3053 
L 1275 0 
L 697 0 
L 697 3053 
L 147 3053 
L 147 3500 
L 697 3500 
L 697 3744 
Q 697 4328 969 4595 
Q 1241 4863 1831 4863 
L 2375 4863 
z
" transform="scale(0.015625)"/>
      <path id="DejaVuSans-2013" d="M 313 1978 
L 2888 1978 
L 2888 1528 
L 313 1528 
L 313 1978 
z
" transform="scale(0.015625)"/>
     </defs>
     <use xlink:href="#DejaVuSans-28"/>
     <use xlink:href="#DejaVuSans-47" transform="translate(39.013672 0)"/>
     <use xlink:href="#DejaVuSans-36" transform="translate(116.503906 0)"/>
     <use xlink:href="#DejaVuSans-73" transform="translate(180.126953 0)"/>
     <use xlink:href="#DejaVuSans-75" transform="translate(232.226562 0)"/>
     <use xlink:href="#DejaVuSans-6c" transform="translate(295.605469 0)"/>
     <use xlink:href="#DejaVuSans-66" transform="translate(323.388672 0)"/>
     <use xlink:href="#DejaVuSans-75" transform="translate(358.59375 0)"/>
     <use xlink:href="#DejaVuSans-72" transform="translate(421.972656 0)"/>
     <use xlink:href="#DejaVuSans-20" transform="translate(463.085938 0)"/>
     <use xlink:href="#DejaVuSans-2013" transform="translate(494.873047 0)"/>
     <use xlink:href="#DejaVuSans-20" transform="translate(544.873047 0)"/>
     <use xlink:href="#DejaVuSans-47" transform="translate(576.660156 0)"/>
     <use xlink:href="#DejaVuSans-36" transform="translate(654.150391 0)"/>
     <use xlink:href="#DejaVuSans-73" transform="translate(717.773438 0)"/>
     <use xlink:href="#DejaVuSans-6f" transform="translate(769.873047 0)"/>
     <use xlink:href="#DejaVuSans-6c" transform="translate(831.054688 0)"/>
     <use xlink:href="#DejaVuSans-61" transform="translate(858.837891 0)"/>
     <use xlink:href="#DejaVuSans-72" transform="translate(920.117188 0)"/>
     <use xlink:href="#DejaVuSans-29" transform="translate(961.230469 0)"/>
    </g>
   </g>
   <g id="legend_1">
    <g id="patch_7">
     <path d="M 279.540625 181.959125 
L 342.2 181.959125 
Q 344.2 181.959125 344.2 179.959125 
L 344.2 48.856 
Q 344.2 46.856 342.2 46.856 
L 279.540625 46.856 
Q 277.540625 46.856 277.540625 48.856 
L 277.540625 179.959125 
Q 277.540625 181.959125 279.540625 181.959125 
z
" style="fill: #ffffff; opacity: 0.8; stroke: #cccccc; stroke-linejoin: miter"/>
    </g>
    <g id="text_19">
     <!-- Decade -->
     <g transform="translate(291.879687 58.454437) scale(0.1 -0.1)">
      <defs>
       <path id="DejaVuSans-44" d="M 1259 4147 
L 1259 519 
L 2022 519 
Q 2988 519 3436 956 
Q 3884 1394 3884 2338 
Q 3884 3275 3436 3711 
Q 2988 4147 2022 4147 
L 1259 4147 
z
M 628 4666 
L 1925 4666 
Q 3281 4666 3915 4102 
Q 4550 3538 4550 2338 
Q 4550 1131 3912 565 
Q 3275 0 1925 0 
L 628 0 
L 628 4666 
z
" transform="scale(0.015625)"/>
      </defs>
      <use xlink:href="#DejaVuSans-44"/>
      <use xlink:href="#DejaVuSans-65" transform="translate(77.001953 0)"/>
      <use xlink:href="#DejaVuSans-63" transform="translate(138.525391 0)"/>
      <use xlink:href="#DejaVuSans-61" transform="translate(193.505859 0)"/>
      <use xlink:href="#DejaVuSans-64" transform="translate(254.785156 0)"/>
      <use xlink:href="#DejaVuSans-65" transform="translate(318.261719 0)"/>
     </g>
    </g>
    <g id="line2d_24">
     <path d="M 281.540625 69.632562 
L 291.540625 69.632562 
L 301.540625 69.632562 
" style="fill: none; stroke: #440154; stroke-width: 1.5; stroke-linecap: square"/>
    </g>
    <g id="text_20">
     <!-- 2020s -->
     <g transform="translate(309.540625 73.132562) scale(0.1 -0.1)">
      <use xlink:href="#DejaVuSans-32"/>
      <use xlink:href="#DejaVuSans-30" transform="translate(63.623047 0)"/>
      <use xlink:href="#DejaVuSans-32" transform="translate(127.246094 0)"/>
      <use xlink:href="#DejaVuSans-30" transform="translate(190.869141 0)"/>
      <use xlink:href="#DejaVuSans-73" transform="translate(254.492188 0)"/>
     </g>
    </g>
    <g id="line2d_25">
     <path d="M 281.540625 84.310687 
L 291.540625 84.310687 
L 301.540625 84.310687 
" style="fill: none; stroke: #46327e; stroke-width: 1.5; stroke-linecap: square"/>
    </g>
    <g id="text_21">
     <!-- 2030s -->
     <g transform="translate(309.540625 87.810687) scale(0.1 -0.1)">
      <use xlink:href="#DejaVuSans-32"/>
      <use xlink:href="#DejaVuSans-30" transform="translate(63.623047 0)"/>
      <use xlink:href="#DejaVuSans-33" transform="translate(127.246094 0)"/>
      <use xlink:href="#DejaVuSans-30" transform="translate(190.869141 0)"/>
      <use xlink:href="#DejaVuSans-73" transform="translate(254.492188 0)"/>
     </g>
    </g>
    <g id="line2d_26">
     <path d="M 281.540625 98.988812 
L 291.540625 98.988812 
L 301.540625 98.988812 
" style="fill: none; stroke: #365c8d; stroke-width: 1.5; stroke-linecap: square"/>
    </g>
    <g id="text_22">
     <!-- 2040s -->
     <g transform="translate(309.540625 102.488812) scale(0.1 -0.1)">
      <use xlink:href="#DejaVuSans-32"/>
      <use xlink:href="#DejaVuSans-30" transform="translate(63.623047 0)"/>
      <use xlink:href="#DejaVuSans-34" transform="translate(127.246094 0)"/>
      <use xlink:href="#DejaVuSans-30" transform="translate(190.869141 0)"/>
      <use xlink:href="#DejaVuSans-73" transform="translate(254.492188 0)"/>
     </g>
    </g>
    <g id="line2d_27">
     <path d="M 281.540625 113.666937 
L 291.540625 113.666937 
L 301.540625 113.666937 
" style="fill: none; stroke: #277f8e; stroke-width: 1.5; stroke-linecap: square"/>
    </g>
    <g id="text_23">
     <!-- 2050s -->
     <g transform="translate(309.540625 117.166937) scale(0.1 -0.1)">
      <defs>
       <path id="DejaVuSans-35" d="M 691 4666 
L 3169 4666 
L 3169 4134 
L 1269 4134 
L 1269 2991 
Q 1406 3038 1543 3061 
Q 1681 3084 1819 3084 
Q 2600 3084 3056 2656 
Q 3513 2228 3513 1497 
Q 3513 744 3044 326 
Q 2575 -91 1722 -91 
Q 1428 -91 1123 -41 
Q 819 9 494 109 
L 494 744 
Q 775 591 1075 516 
Q 1375 441 1709 441 
Q 2250 441 2565 725 
Q 2881 1009 2881 1497 
Q 2881 1984 2565 2268 
Q 2250 2553 1709 2553 
Q 1456 2553 1204 2497 
Q 953 2441 691 2322 
L 691 4666 
z
" transform="scale(0.015625)"/>
      </defs>
      <use xlink:href="#DejaVuSans-32"/>
      <use xlink:href="#DejaVuSans-30" transform="translate(63.623047 0)"/>
      <use xlink:href="#DejaVuSans-35" transform="translate(127.246094 0)"/>
      <use xlink:href="#DejaVuSans-30" transform="translate(190.869141 0)"/>
      <use xlink:href="#DejaVuSans-73" transform="translate(254.492188 0)"/>
     </g>
    </g>
    <g id="line2d_28">
     <path d="M 281.540625 128.345062 
L 291.540625 128.345062 
L 301.540625 128.345062 
" style="fill: none; stroke: #1fa187; stroke-width: 1.5; stroke-linecap: square"/>
    </g>
    <g id="text_24">
     <!-- 2060s -->
     <g transform="translate(309.540625 131.845062) scale(0.1 -0.1)">
      <use xlink:href="#DejaVuSans-32"/>
      <use xlink:href="#DejaVuSans-30" transform="translate(63.623047 0)"/>
      <use xlink:href="#DejaVuSans-36" transform="translate(127.246094 0)"/>
      <use xlink:href="#DejaVuSans-30" transform="translate(190.869141 0)"/>
      <use xlink:href="#DejaVuSans-73" transform="translate(254.492188 0)"/>
     </g>
    </g>
    <g id="line2d_29">
     <path d="M 281.540625 143.023187 
L 291.540625 143.023187 
L 301.540625 143.023187 
" style="fill: none; stroke: #4ac16d; stroke-width: 1.5; stroke-linecap: square"/>
    </g>
    <g id="text_25">
     <!-- 2070s -->
     <g transform="translate(309.540625 146.523187) scale(0.1 -0.1)">
      <defs>
       <path id="DejaVuSans-37" d="M 525 4666 
L 3525 4666 
L 3525 4397 
L 1831 0 
L 1172 0 
L 2766 4134 
L 525 4134 
L 525 4666 
z
" transform="scale(0.015625)"/>
      </defs>
      <use xlink:href="#DejaVuSans-32"/>
      <use xlink:href="#DejaVuSans-30" transform="translate(63.623047 0)"/>
      <use xlink:href="#DejaVuSans-37" transform="translate(127.246094 0)"/>
      <use xlink:href="#DejaVuSans-30" transform="translate(190.869141 0)"/>
      <use xlink:href="#DejaVuSans-73" transform="translate(254.492188 0)"/>
     </g>
    </g>
    <g id="line2d_30">
     <path d="M 281.540625 157.701312 
L 291.540625 157.701312 
L 301.540625 157.701312 
" style="fill: none; stroke: #a0da39; stroke-width: 1.5; stroke-linecap: square"/>
    </g>
    <g id="text_26">
     <!-- 2080s -->
     <g transform="translate(309.540625 161.201312) scale(0.1 -0.1)">
      <use xlink:href="#DejaVuSans-32"/>
      <use xlink:href="#DejaVuSans-30" transform="translate(63.623047 0)"/>
      <use xlink:href="#DejaVuSans-38" transform="translate(127.246094 0)"/>
      <use xlink:href="#DejaVuSans-30" transform="translate(190.869141 0)"/>
      <use xlink:href="#DejaVuSans-73" transform="translate(254.492188 0)"/>
     </g>
    </g>
    <g id="line2d_31">
     <path d="M 281.540625 172.379437 
L 291.540625 172.379437 
L 301.540625 172.379437 
" style="fill: none; stroke: #fde725; stroke-width: 1.5; stroke-linecap: square"/>
    </g>
    <g id="text_27">
     <!-- 2090s -->
     <g transform="translate(309.540625 175.879437) scale(0.1 -0.1)">
      <defs>
       <path id="DejaVuSans-39" d="M 703 97 
L 703 672 
Q 941 559 1184 500 
Q 1428 441 1663 441 
Q 2288 441 2617 861 
Q 2947 1281 2994 2138 
Q 2813 1869 2534 1725 
Q 2256 1581 1919 1581 
Q 1219 1581 811 2004 
Q 403 2428 403 3163 
Q 403 3881 828 4315 
Q 1253 4750 1959 4750 
Q 2769 4750 3195 4129 
Q 3622 3509 3622 2328 
Q 3622 1225 3098 567 
Q 2575 -91 1691 -91 
Q 1453 -91 1209 -44 
Q 966 3 703 97 
z
M 1959 2075 
Q 2384 2075 2632 2365 
Q 2881 2656 2881 3163 
Q 2881 3666 2632 3958 
Q 2384 4250 1959 4250 
Q 1534 4250 1286 3958 
Q 1038 3666 1038 3163 
Q 1038 2656 1286 2365 
Q 1534 2075 1959 2075 
z
" transform="scale(0.015625)"/>
      </defs>
      <use xlink:href="#DejaVuSans-32"/>
      <use xlink:href="#DejaVuSans-30" transform="translate(63.623047 0)"/>
      <use xlink:href="#DejaVuSans-39" transform="translate(127.246094 0)"/>
      <use xlink:href="#DejaVuSans-30" transform="translate(190.869141 0)"/>
      <use xlink:href="#DejaVuSans-73" transform="translate(254.492188 0)"/>
     </g>
    </g>
   </g>
  </g>
 </g>
 <defs>
  <clipPath id="p5e4cf0e9b7">
   <rect x="44.66" y="41.856" width="304.54" height="416.152"/>
  </clipPath>
 </defs>
</svg>
