<?xml version="1.0" encoding="utf-8" standalone="no"?>
<!DOCTYPE svg PUBLIC "-//W3C//DTD SVG 1.1//EN"
  "http://www.w3.org/Graphics/SVG/1.1/DTD/svg11.dtd">
<svg xmlns:xlink="http://www.w3.org/1999/xlink" width="360pt" height="504pt" viewBox="0 0 360 504" xmlns="http://www.w3.org/2000/svg" version="1.1">
 <metadata>
  <rdf:RDF xmlns:dc="http://purl.org/dc/elements/1.1/" xmlns:cc="http://creativecommons.org/ns#" xmlns:rdf="http://www.w3.org/1999/02/22-rdf-syntax-ns#">
   <cc:Work>
    <dc:type rdf:resource="http://purl.org/dc/dcmitype/StillImage"/>
    <dc:date>2025-05-21T01:35:43.431692</dc:date>
    <dc:format>image/svg+xml</dc:format>
    <dc:creator>
     <cc:Agent>
      <dc:title>Matplotlib v3.10.3, https://matplotlib.org/</dc:title>
     </cc:Agent>
    </dc:creator>
   </cc:Work>
  </rdf:RDF>
 </metadata>
 <defs>
  <style type="text/css">*{stroke-linejoin: round; stroke-linecap: butt}</style>
 </defs>
 <g id="figure_1">
  <g id="patch_1">
   <path d="M 0 504 
L 360 504 
L 360 0 
L 0 0 
z
" style="fill: #ffffff"/>
  </g>
  <g id="axes_1">
   <g id="patch_2">
    <path d="M 44.66 456.568 
L 349.2 456.568 
L 349.2 41.856 
L 44.66 41.856 
z
" style="fill: #ffffff"/>
   </g>
   <g id="matplotlib.axis_1">
    <g id="xtick_1">
     <g id="line2d_1">
      <defs>
       <path id="mb38e5ef861" d="M 0 0 
L 0 3.5 
" style="stroke: #000000; stroke-width: 0.8"/>
      </defs>
      <g>
       <use xlink:href="#mb38e5ef861" x="74.105942" y="456.568" style="stroke: #000000; stroke-width: 0.8"/>
      </g>
     </g>
     <g id="text_1">
      <!-- −0.2 -->
      <g transform="translate(61.964536 471.166437) scale(0.1 -0.1)">
       <defs>
        <path id="DejaVuSans-2212" d="M 678 2272 
L 4684 2272 
L 4684 1741 
L 678 1741 
L 678 2272 
z
" transform="scale(0.015625)"/>
        <path id="DejaVuSans-30" d="M 2034 4250 
Q 1547 4250 1301 3770 
Q 1056 3291 1056 2328 
Q 1056 1369 1301 889 
Q 1547 409 2034 409 
Q 2525 409 2770 889 
Q 3016 1369 3016 2328 
Q 3016 3291 2770 3770 
Q 2525 4250 2034 4250 
z
M 2034 4750 
Q 2819 4750 3233 4129 
Q 3647 3509 3647 2328 
Q 3647 1150 3233 529 
Q 2819 -91 2034 -91 
Q 1250 -91 836 529 
Q 422 1150 422 2328 
Q 422 3509 836 4129 
Q 1250 4750 2034 4750 
z
" transform="scale(0.015625)"/>
        <path id="DejaVuSans-2e" d="M 684 794 
L 1344 794 
L 1344 0 
L 684 0 
L 684 794 
z
" transform="scale(0.015625)"/>
        <path id="DejaVuSans-32" d="M 1228 531 
L 3431 531 
L 3431 0 
L 469 0 
L 469 531 
Q 828 903 1448 1529 
Q 2069 2156 2228 2338 
Q 2531 2678 2651 2914 
Q 2772 3150 2772 3378 
Q 2772 3750 2511 3984 
Q 2250 4219 1831 4219 
Q 1534 4219 1204 4116 
Q 875 4013 500 3803 
L 500 4441 
Q 881 4594 1212 4672 
Q 1544 4750 1819 4750 
Q 2544 4750 2975 4387 
Q 3406 4025 3406 3419 
Q 3406 3131 3298 2873 
Q 3191 2616 2906 2266 
Q 2828 2175 2409 1742 
Q 1991 1309 1228 531 
z
" transform="scale(0.015625)"/>
       </defs>
       <use xlink:href="#DejaVuSans-2212"/>
       <use xlink:href="#DejaVuSans-30" transform="translate(83.789062 0)"/>
       <use xlink:href="#DejaVuSans-2e" transform="translate(147.412109 0)"/>
       <use xlink:href="#DejaVuSans-32" transform="translate(179.199219 0)"/>
      </g>
     </g>
    </g>
    <g id="xtick_2">
     <g id="line2d_2">
      <g>
       <use xlink:href="#mb38e5ef861" x="140.027005" y="456.568" style="stroke: #000000; stroke-width: 0.8"/>
      </g>
     </g>
     <g id="text_2">
      <!-- −0.1 -->
      <g transform="translate(127.885599 471.166437) scale(0.1 -0.1)">
       <defs>
        <path id="DejaVuSans-31" d="M 794 531 
L 1825 531 
L 1825 4091 
L 703 3866 
L 703 4441 
L 1819 4666 
L 2450 4666 
L 2450 531 
L 3481 531 
L 3481 0 
L 794 0 
L 794 531 
z
" transform="scale(0.015625)"/>
       </defs>
       <use xlink:href="#DejaVuSans-2212"/>
       <use xlink:href="#DejaVuSans-30" transform="translate(83.789062 0)"/>
       <use xlink:href="#DejaVuSans-2e" transform="translate(147.412109 0)"/>
       <use xlink:href="#DejaVuSans-31" transform="translate(179.199219 0)"/>
      </g>
     </g>
    </g>
    <g id="xtick_3">
     <g id="line2d_3">
      <g>
       <use xlink:href="#mb38e5ef861" x="205.948068" y="456.568" style="stroke: #000000; stroke-width: 0.8"/>
      </g>
     </g>
     <g id="text_3">
      <!-- 0.0 -->
      <g transform="translate(197.996505 471.166437) scale(0.1 -0.1)">
       <use xlink:href="#DejaVuSans-30"/>
       <use xlink:href="#DejaVuSans-2e" transform="translate(63.623047 0)"/>
       <use xlink:href="#DejaVuSans-30" transform="translate(95.410156 0)"/>
      </g>
     </g>
    </g>
    <g id="xtick_4">
     <g id="line2d_4">
      <g>
       <use xlink:href="#mb38e5ef861" x="271.86913" y="456.568" style="stroke: #000000; stroke-width: 0.8"/>
      </g>
     </g>
     <g id="text_4">
      <!-- 0.1 -->
      <g transform="translate(263.917568 471.166437) scale(0.1 -0.1)">
       <use xlink:href="#DejaVuSans-30"/>
       <use xlink:href="#DejaVuSans-2e" transform="translate(63.623047 0)"/>
       <use xlink:href="#DejaVuSans-31" transform="translate(95.410156 0)"/>
      </g>
     </g>
    </g>
    <g id="xtick_5">
     <g id="line2d_5">
      <g>
       <use xlink:href="#mb38e5ef861" x="337.790193" y="456.568" style="stroke: #000000; stroke-width: 0.8"/>
      </g>
     </g>
     <g id="text_5">
      <!-- 0.2 -->
      <g transform="translate(329.838631 471.166437) scale(0.1 -0.1)">
       <use xlink:href="#DejaVuSans-30"/>
       <use xlink:href="#DejaVuSans-2e" transform="translate(63.623047 0)"/>
       <use xlink:href="#DejaVuSans-32" transform="translate(95.410156 0)"/>
      </g>
     </g>
    </g>
    <g id="text_6">
     <!-- Δ tntr  (K day$^{-1}$) -->
     <g transform="translate(156.28 486.246125) scale(0.1 -0.1)">
      <defs>
       <path id="DejaVuSans-394" d="M 2188 4044 
L 906 525 
L 3472 525 
L 2188 4044 
z
M 50 0 
L 1831 4666 
L 2547 4666 
L 4325 0 
L 50 0 
z
" transform="scale(0.015625)"/>
       <path id="DejaVuSans-20" transform="scale(0.015625)"/>
       <path id="DejaVuSans-74" d="M 1172 4494 
L 1172 3500 
L 2356 3500 
L 2356 3053 
L 1172 3053 
L 1172 1153 
Q 1172 725 1289 603 
Q 1406 481 1766 481 
L 2356 481 
L 2356 0 
L 1766 0 
Q 1100 0 847 248 
Q 594 497 594 1153 
L 594 3053 
L 172 3053 
L 172 3500 
L 594 3500 
L 594 4494 
L 1172 4494 
z
" transform="scale(0.015625)"/>
       <path id="DejaVuSans-6e" d="M 3513 2113 
L 3513 0 
L 2938 0 
L 2938 2094 
Q 2938 2591 2744 2837 
Q 2550 3084 2163 3084 
Q 1697 3084 1428 2787 
Q 1159 2491 1159 1978 
L 1159 0 
L 581 0 
L 581 3500 
L 1159 3500 
L 1159 2956 
Q 1366 3272 1645 3428 
Q 1925 3584 2291 3584 
Q 2894 3584 3203 3211 
Q 3513 2838 3513 2113 
z
" transform="scale(0.015625)"/>
       <path id="DejaVuSans-72" d="M 2631 2963 
Q 2534 3019 2420 3045 
Q 2306 3072 2169 3072 
Q 1681 3072 1420 2755 
Q 1159 2438 1159 1844 
L 1159 0 
L 581 0 
L 581 3500 
L 1159 3500 
L 1159 2956 
Q 1341 3275 1631 3429 
Q 1922 3584 2338 3584 
Q 2397 3584 2469 3576 
Q 2541 3569 2628 3553 
L 2631 2963 
z
" transform="scale(0.015625)"/>
       <path id="DejaVuSans-28" d="M 1984 4856 
Q 1566 4138 1362 3434 
Q 1159 2731 1159 2009 
Q 1159 1288 1364 580 
Q 1569 -128 1984 -844 
L 1484 -844 
Q 1016 -109 783 600 
Q 550 1309 550 2009 
Q 550 2706 781 3412 
Q 1013 4119 1484 4856 
L 1984 4856 
z
" transform="scale(0.015625)"/>
       <path id="DejaVuSans-4b" d="M 628 4666 
L 1259 4666 
L 1259 2694 
L 3353 4666 
L 4166 4666 
L 1850 2491 
L 4331 0 
L 3500 0 
L 1259 2247 
L 1259 0 
L 628 0 
L 628 4666 
z
" transform="scale(0.015625)"/>
       <path id="DejaVuSans-64" d="M 2906 2969 
L 2906 4863 
L 3481 4863 
L 3481 0 
L 2906 0 
L 2906 525 
Q 2725 213 2448 61 
Q 2172 -91 1784 -91 
Q 1150 -91 751 415 
Q 353 922 353 1747 
Q 353 2572 751 3078 
Q 1150 3584 1784 3584 
Q 2172 3584 2448 3432 
Q 2725 3281 2906 2969 
z
M 947 1747 
Q 947 1113 1208 752 
Q 1469 391 1925 391 
Q 2381 391 2643 752 
Q 2906 1113 2906 1747 
Q 2906 2381 2643 2742 
Q 2381 3103 1925 3103 
Q 1469 3103 1208 2742 
Q 947 2381 947 1747 
z
" transform="scale(0.015625)"/>
       <path id="DejaVuSans-61" d="M 2194 1759 
Q 1497 1759 1228 1600 
Q 959 1441 959 1056 
Q 959 750 1161 570 
Q 1363 391 1709 391 
Q 2188 391 2477 730 
Q 2766 1069 2766 1631 
L 2766 1759 
L 2194 1759 
z
M 3341 1997 
L 3341 0 
L 2766 0 
L 2766 531 
Q 2569 213 2275 61 
Q 1981 -91 1556 -91 
Q 1019 -91 701 211 
Q 384 513 384 1019 
Q 384 1609 779 1909 
Q 1175 2209 1959 2209 
L 2766 2209 
L 2766 2266 
Q 2766 2663 2505 2880 
Q 2244 3097 1772 3097 
Q 1472 3097 1187 3025 
Q 903 2953 641 2809 
L 641 3341 
Q 956 3463 1253 3523 
Q 1550 3584 1831 3584 
Q 2591 3584 2966 3190 
Q 3341 2797 3341 1997 
z
" transform="scale(0.015625)"/>
       <path id="DejaVuSans-79" d="M 2059 -325 
Q 1816 -950 1584 -1140 
Q 1353 -1331 966 -1331 
L 506 -1331 
L 506 -850 
L 844 -850 
Q 1081 -850 1212 -737 
Q 1344 -625 1503 -206 
L 1606 56 
L 191 3500 
L 800 3500 
L 1894 763 
L 2988 3500 
L 3597 3500 
L 2059 -325 
z
" transform="scale(0.015625)"/>
       <path id="DejaVuSans-29" d="M 513 4856 
L 1013 4856 
Q 1481 4119 1714 3412 
Q 1947 2706 1947 2009 
Q 1947 1309 1714 600 
Q 1481 -109 1013 -844 
L 513 -844 
Q 928 -128 1133 580 
Q 1338 1288 1338 2009 
Q 1338 2731 1133 3434 
Q 928 4138 513 4856 
z
" transform="scale(0.015625)"/>
      </defs>
      <use xlink:href="#DejaVuSans-394" transform="translate(0 0.684375)"/>
      <use xlink:href="#DejaVuSans-20" transform="translate(68.408203 0.684375)"/>
      <use xlink:href="#DejaVuSans-74" transform="translate(100.195312 0.684375)"/>
      <use xlink:href="#DejaVuSans-6e" transform="translate(139.404297 0.684375)"/>
      <use xlink:href="#DejaVuSans-74" transform="translate(202.783203 0.684375)"/>
      <use xlink:href="#DejaVuSans-72" transform="translate(241.992188 0.684375)"/>
      <use xlink:href="#DejaVuSans-20" transform="translate(283.105469 0.684375)"/>
      <use xlink:href="#DejaVuSans-20" transform="translate(314.892578 0.684375)"/>
      <use xlink:href="#DejaVuSans-28" transform="translate(346.679688 0.684375)"/>
      <use xlink:href="#DejaVuSans-4b" transform="translate(385.693359 0.684375)"/>
      <use xlink:href="#DejaVuSans-20" transform="translate(451.269531 0.684375)"/>
      <use xlink:href="#DejaVuSans-64" transform="translate(483.056641 0.684375)"/>
      <use xlink:href="#DejaVuSans-61" transform="translate(546.533203 0.684375)"/>
      <use xlink:href="#DejaVuSans-79" transform="translate(607.8125 0.684375)"/>
      <use xlink:href="#DejaVuSans-2212" transform="translate(667.949219 38.965625) scale(0.7)"/>
      <use xlink:href="#DejaVuSans-31" transform="translate(726.601562 38.965625) scale(0.7)"/>
      <use xlink:href="#DejaVuSans-29" transform="translate(773.87207 0.684375)"/>
     </g>
    </g>
   </g>
   <g id="matplotlib.axis_2">
    <g id="ytick_1">
     <g id="line2d_6">
      <defs>
       <path id="m9ade70d15e" d="M 0 0 
L -3.5 0 
" style="stroke: #000000; stroke-width: 0.8"/>
      </defs>
      <g>
       <use xlink:href="#m9ade70d15e" x="44.66" y="64.895556" style="stroke: #000000; stroke-width: 0.8"/>
      </g>
     </g>
     <g id="text_7">
      <!-- 16 -->
      <g transform="translate(24.935 68.694774) scale(0.1 -0.1)">
       <defs>
        <path id="DejaVuSans-36" d="M 2113 2584 
Q 1688 2584 1439 2293 
Q 1191 2003 1191 1497 
Q 1191 994 1439 701 
Q 1688 409 2113 409 
Q 2538 409 2786 701 
Q 3034 994 3034 1497 
Q 3034 2003 2786 2293 
Q 2538 2584 2113 2584 
z
M 3366 4563 
L 3366 3988 
Q 3128 4100 2886 4159 
Q 2644 4219 2406 4219 
Q 1781 4219 1451 3797 
Q 1122 3375 1075 2522 
Q 1259 2794 1537 2939 
Q 1816 3084 2150 3084 
Q 2853 3084 3261 2657 
Q 3669 2231 3669 1497 
Q 3669 778 3244 343 
Q 2819 -91 2113 -91 
Q 1303 -91 875 529 
Q 447 1150 447 2328 
Q 447 3434 972 4092 
Q 1497 4750 2381 4750 
Q 2619 4750 2861 4703 
Q 3103 4656 3366 4563 
z
" transform="scale(0.015625)"/>
       </defs>
       <use xlink:href="#DejaVuSans-31"/>
       <use xlink:href="#DejaVuSans-36" transform="translate(63.623047 0)"/>
      </g>
     </g>
    </g>
    <g id="ytick_2">
     <g id="line2d_7">
      <g>
       <use xlink:href="#m9ade70d15e" x="44.66" y="110.974667" style="stroke: #000000; stroke-width: 0.8"/>
      </g>
     </g>
     <g id="text_8">
      <!-- 18 -->
      <g transform="translate(24.935 114.773885) scale(0.1 -0.1)">
       <defs>
        <path id="DejaVuSans-38" d="M 2034 2216 
Q 1584 2216 1326 1975 
Q 1069 1734 1069 1313 
Q 1069 891 1326 650 
Q 1584 409 2034 409 
Q 2484 409 2743 651 
Q 3003 894 3003 1313 
Q 3003 1734 2745 1975 
Q 2488 2216 2034 2216 
z
M 1403 2484 
Q 997 2584 770 2862 
Q 544 3141 544 3541 
Q 544 4100 942 4425 
Q 1341 4750 2034 4750 
Q 2731 4750 3128 4425 
Q 3525 4100 3525 3541 
Q 3525 3141 3298 2862 
Q 3072 2584 2669 2484 
Q 3125 2378 3379 2068 
Q 3634 1759 3634 1313 
Q 3634 634 3220 271 
Q 2806 -91 2034 -91 
Q 1263 -91 848 271 
Q 434 634 434 1313 
Q 434 1759 690 2068 
Q 947 2378 1403 2484 
z
M 1172 3481 
Q 1172 3119 1398 2916 
Q 1625 2713 2034 2713 
Q 2441 2713 2670 2916 
Q 2900 3119 2900 3481 
Q 2900 3844 2670 4047 
Q 2441 4250 2034 4250 
Q 1625 4250 1398 4047 
Q 1172 3844 1172 3481 
z
" transform="scale(0.015625)"/>
       </defs>
       <use xlink:href="#DejaVuSans-31"/>
       <use xlink:href="#DejaVuSans-38" transform="translate(63.623047 0)"/>
      </g>
     </g>
    </g>
    <g id="ytick_3">
     <g id="line2d_8">
      <g>
       <use xlink:href="#m9ade70d15e" x="44.66" y="157.053778" style="stroke: #000000; stroke-width: 0.8"/>
      </g>
     </g>
     <g id="text_9">
      <!-- 20 -->
      <g transform="translate(24.935 160.852997) scale(0.1 -0.1)">
       <use xlink:href="#DejaVuSans-32"/>
       <use xlink:href="#DejaVuSans-30" transform="translate(63.623047 0)"/>
      </g>
     </g>
    </g>
    <g id="ytick_4">
     <g id="line2d_9">
      <g>
       <use xlink:href="#m9ade70d15e" x="44.66" y="203.132889" style="stroke: #000000; stroke-width: 0.8"/>
      </g>
     </g>
     <g id="text_10">
      <!-- 22 -->
      <g transform="translate(24.935 206.932108) scale(0.1 -0.1)">
       <use xlink:href="#DejaVuSans-32"/>
       <use xlink:href="#DejaVuSans-32" transform="translate(63.623047 0)"/>
      </g>
     </g>
    </g>
    <g id="ytick_5">
     <g id="line2d_10">
      <g>
       <use xlink:href="#m9ade70d15e" x="44.66" y="249.212" style="stroke: #000000; stroke-width: 0.8"/>
      </g>
     </g>
     <g id="text_11">
      <!-- 24 -->
      <g transform="translate(24.935 253.011219) scale(0.1 -0.1)">
       <defs>
        <path id="DejaVuSans-34" d="M 2419 4116 
L 825 1625 
L 2419 1625 
L 2419 4116 
z
M 2253 4666 
L 3047 4666 
L 3047 1625 
L 3713 1625 
L 3713 1100 
L 3047 1100 
L 3047 0 
L 2419 0 
L 2419 1100 
L 313 1100 
L 313 1709 
L 2253 4666 
z
" transform="scale(0.015625)"/>
       </defs>
       <use xlink:href="#DejaVuSans-32"/>
       <use xlink:href="#DejaVuSans-34" transform="translate(63.623047 0)"/>
      </g>
     </g>
    </g>
    <g id="ytick_6">
     <g id="line2d_11">
      <g>
       <use xlink:href="#m9ade70d15e" x="44.66" y="295.291111" style="stroke: #000000; stroke-width: 0.8"/>
      </g>
     </g>
     <g id="text_12">
      <!-- 26 -->
      <g transform="translate(24.935 299.09033) scale(0.1 -0.1)">
       <use xlink:href="#DejaVuSans-32"/>
       <use xlink:href="#DejaVuSans-36" transform="translate(63.623047 0)"/>
      </g>
     </g>
    </g>
    <g id="ytick_7">
     <g id="line2d_12">
      <g>
       <use xlink:href="#m9ade70d15e" x="44.66" y="341.370222" style="stroke: #000000; stroke-width: 0.8"/>
      </g>
     </g>
     <g id="text_13">
      <!-- 28 -->
      <g transform="translate(24.935 345.169441) scale(0.1 -0.1)">
       <use xlink:href="#DejaVuSans-32"/>
       <use xlink:href="#DejaVuSans-38" transform="translate(63.623047 0)"/>
      </g>
     </g>
    </g>
    <g id="ytick_8">
     <g id="line2d_13">
      <g>
       <use xlink:href="#m9ade70d15e" x="44.66" y="387.449333" style="stroke: #000000; stroke-width: 0.8"/>
      </g>
     </g>
     <g id="text_14">
      <!-- 30 -->
      <g transform="translate(24.935 391.248552) scale(0.1 -0.1)">
       <defs>
        <path id="DejaVuSans-33" d="M 2597 2516 
Q 3050 2419 3304 2112 
Q 3559 1806 3559 1356 
Q 3559 666 3084 287 
Q 2609 -91 1734 -91 
Q 1441 -91 1130 -33 
Q 819 25 488 141 
L 488 750 
Q 750 597 1062 519 
Q 1375 441 1716 441 
Q 2309 441 2620 675 
Q 2931 909 2931 1356 
Q 2931 1769 2642 2001 
Q 2353 2234 1838 2234 
L 1294 2234 
L 1294 2753 
L 1863 2753 
Q 2328 2753 2575 2939 
Q 2822 3125 2822 3475 
Q 2822 3834 2567 4026 
Q 2313 4219 1838 4219 
Q 1578 4219 1281 4162 
Q 984 4106 628 3988 
L 628 4550 
Q 988 4650 1302 4700 
Q 1616 4750 1894 4750 
Q 2613 4750 3031 4423 
Q 3450 4097 3450 3541 
Q 3450 3153 3228 2886 
Q 3006 2619 2597 2516 
z
" transform="scale(0.015625)"/>
       </defs>
       <use xlink:href="#DejaVuSans-33"/>
       <use xlink:href="#DejaVuSans-30" transform="translate(63.623047 0)"/>
      </g>
     </g>
    </g>
    <g id="ytick_9">
     <g id="line2d_14">
      <g>
       <use xlink:href="#m9ade70d15e" x="44.66" y="433.528444" style="stroke: #000000; stroke-width: 0.8"/>
      </g>
     </g>
     <g id="text_15">
      <!-- 32 -->
      <g transform="translate(24.935 437.327663) scale(0.1 -0.1)">
       <use xlink:href="#DejaVuSans-33"/>
       <use xlink:href="#DejaVuSans-32" transform="translate(63.623047 0)"/>
      </g>
     </g>
    </g>
    <g id="text_16">
     <!-- Altitude (km) -->
     <g transform="translate(18.855313 282.006531) rotate(-90) scale(0.1 -0.1)">
      <defs>
       <path id="DejaVuSans-41" d="M 2188 4044 
L 1331 1722 
L 3047 1722 
L 2188 4044 
z
M 1831 4666 
L 2547 4666 
L 4325 0 
L 3669 0 
L 3244 1197 
L 1141 1197 
L 716 0 
L 50 0 
L 1831 4666 
z
" transform="scale(0.015625)"/>
       <path id="DejaVuSans-6c" d="M 603 4863 
L 1178 4863 
L 1178 0 
L 603 0 
L 603 4863 
z
" transform="scale(0.015625)"/>
       <path id="DejaVuSans-69" d="M 603 3500 
L 1178 3500 
L 1178 0 
L 603 0 
L 603 3500 
z
M 603 4863 
L 1178 4863 
L 1178 4134 
L 603 4134 
L 603 4863 
z
" transform="scale(0.015625)"/>
       <path id="DejaVuSans-75" d="M 544 1381 
L 544 3500 
L 1119 3500 
L 1119 1403 
Q 1119 906 1312 657 
Q 1506 409 1894 409 
Q 2359 409 2629 706 
Q 2900 1003 2900 1516 
L 2900 3500 
L 3475 3500 
L 3475 0 
L 2900 0 
L 2900 538 
Q 2691 219 2414 64 
Q 2138 -91 1772 -91 
Q 1169 -91 856 284 
Q 544 659 544 1381 
z
M 1991 3584 
L 1991 3584 
z
" transform="scale(0.015625)"/>
       <path id="DejaVuSans-65" d="M 3597 1894 
L 3597 1613 
L 953 1613 
Q 991 1019 1311 708 
Q 1631 397 2203 397 
Q 2534 397 2845 478 
Q 3156 559 3463 722 
L 3463 178 
Q 3153 47 2828 -22 
Q 2503 -91 2169 -91 
Q 1331 -91 842 396 
Q 353 884 353 1716 
Q 353 2575 817 3079 
Q 1281 3584 2069 3584 
Q 2775 3584 3186 3129 
Q 3597 2675 3597 1894 
z
M 3022 2063 
Q 3016 2534 2758 2815 
Q 2500 3097 2075 3097 
Q 1594 3097 1305 2825 
Q 1016 2553 972 2059 
L 3022 2063 
z
" transform="scale(0.015625)"/>
       <path id="DejaVuSans-6b" d="M 581 4863 
L 1159 4863 
L 1159 1991 
L 2875 3500 
L 3609 3500 
L 1753 1863 
L 3688 0 
L 2938 0 
L 1159 1709 
L 1159 0 
L 581 0 
L 581 4863 
z
" transform="scale(0.015625)"/>
       <path id="DejaVuSans-6d" d="M 3328 2828 
Q 3544 3216 3844 3400 
Q 4144 3584 4550 3584 
Q 5097 3584 5394 3201 
Q 5691 2819 5691 2113 
L 5691 0 
L 5113 0 
L 5113 2094 
Q 5113 2597 4934 2840 
Q 4756 3084 4391 3084 
Q 3944 3084 3684 2787 
Q 3425 2491 3425 1978 
L 3425 0 
L 2847 0 
L 2847 2094 
Q 2847 2600 2669 2842 
Q 2491 3084 2119 3084 
Q 1678 3084 1418 2786 
Q 1159 2488 1159 1978 
L 1159 0 
L 581 0 
L 581 3500 
L 1159 3500 
L 1159 2956 
Q 1356 3278 1631 3431 
Q 1906 3584 2284 3584 
Q 2666 3584 2933 3390 
Q 3200 3197 3328 2828 
z
" transform="scale(0.015625)"/>
      </defs>
      <use xlink:href="#DejaVuSans-41"/>
      <use xlink:href="#DejaVuSans-6c" transform="translate(68.408203 0)"/>
      <use xlink:href="#DejaVuSans-74" transform="translate(96.191406 0)"/>
      <use xlink:href="#DejaVuSans-69" transform="translate(135.400391 0)"/>
      <use xlink:href="#DejaVuSans-74" transform="translate(163.183594 0)"/>
      <use xlink:href="#DejaVuSans-75" transform="translate(202.392578 0)"/>
      <use xlink:href="#DejaVuSans-64" transform="translate(265.771484 0)"/>
      <use xlink:href="#DejaVuSans-65" transform="translate(329.248047 0)"/>
      <use xlink:href="#DejaVuSans-20" transform="translate(390.771484 0)"/>
      <use xlink:href="#DejaVuSans-28" transform="translate(422.558594 0)"/>
      <use xlink:href="#DejaVuSans-6b" transform="translate(461.572266 0)"/>
      <use xlink:href="#DejaVuSans-6d" transform="translate(519.482422 0)"/>
      <use xlink:href="#DejaVuSans-29" transform="translate(616.894531 0)"/>
     </g>
    </g>
   </g>
   <g id="line2d_15">
    <path d="M 205.948068 505 
L 205.948068 502.553249 
L 205.948068 474.712425 
L 205.948068 448.959542 
L 205.948068 425.001903 
L 205.948068 402.604451 
L 205.948068 381.575671 
L 205.948068 361.757285 
L 205.948068 343.017182 
L 205.948068 325.243799 
L 205.948068 308.341957 
L 205.948068 292.230057 
L 205.948068 276.837404 
L 205.948068 262.102352 
L 205.948068 247.970971 
L 205.948068 234.395703 
L 205.948068 221.334262 
L 205.948068 208.749218 
L 205.948068 196.606934 
L 205.948068 184.877293 
L 205.948068 173.533153 
L 205.948068 162.54994 
L 205.948068 151.905373 
L 205.948068 141.579187 
L 205.948068 131.552829 
L 205.948068 121.809318 
L 205.948068 112.333301 
L 205.948068 103.110151 
L 205.948068 94.126891 
L 205.948068 85.370924 
L 205.948068 76.830911 
L 205.948068 68.496115 
L 205.948068 60.356459 
L 205.948068 52.402371 
L 205.948068 44.624679 
L 205.948068 37.0147 
L 205.948068 29.563691 
L 205.948068 22.263651 
L 205.948068 15.105977 
L 205.948068 8.082612 
L 205.948068 1.185045 
L 205.948068 -1 
" clip-path="url(#pfa38d1741e)" style="fill: none; stroke: #440154; stroke-width: 1.5; stroke-linecap: square"/>
   </g>
   <g id="line2d_16">
    <path d="M 203.075953 505 
L 203.009833 502.553249 
L 205.311176 474.712425 
L 209.186946 448.959542 
L 210.118242 425.001903 
L 209.976567 402.604451 
L 208.652826 381.575671 
L 207.439487 361.757285 
L 206.725869 343.017182 
L 206.679725 325.243799 
L 206.648695 308.341957 
L 206.666863 292.230057 
L 206.626602 276.837404 
L 206.745153 262.102352 
L 206.918378 247.970971 
L 206.966328 234.395703 
L 206.040854 221.334262 
L 205.546762 208.749218 
L 207.180361 196.606934 
L 208.25779 184.877293 
L 208.967224 173.533153 
L 209.31071 162.54994 
L 209.332558 151.905373 
L 209.477585 141.579187 
L 210.369011 131.552829 
L 210.516252 121.809318 
L 210.43882 112.333301 
L 210.523867 103.110151 
L 210.551458 94.126891 
L 210.382481 85.370924 
L 210.205849 76.830911 
L 210.038235 68.496115 
L 209.693067 60.356459 
L 209.532818 52.402371 
L 209.420282 44.624679 
L 208.987778 37.0147 
L 208.135045 29.563691 
L 207.302392 22.263651 
L 206.678687 15.105977 
L 206.021728 8.082612 
L 205.603194 1.185045 
L 205.498697 -1 
" clip-path="url(#pfa38d1741e)" style="fill: none; stroke: #46327e; stroke-width: 1.5; stroke-linecap: square"/>
   </g>
   <g id="line2d_17">
    <path d="M 203.225346 505 
L 203.217367 502.553249 
L 204.592536 474.712425 
L 209.454755 448.959542 
L 212.842056 425.001903 
L 212.669628 402.604451 
L 211.072197 381.575671 
L 210.364561 361.757285 
L 210.650666 343.017182 
L 209.567014 325.243799 
L 208.11936 308.341957 
L 207.640667 292.230057 
L 207.161776 276.837404 
L 206.964482 262.102352 
L 207.151129 247.970971 
L 207.650881 234.395703 
L 206.255725 221.334262 
L 205.300412 208.749218 
L 208.157459 196.606934 
L 209.057483 184.877293 
L 209.585877 173.533153 
L 210.085725 162.54994 
L 209.376988 151.905373 
L 208.909382 141.579187 
L 210.574536 131.552829 
L 210.900727 121.809318 
L 210.430581 112.333301 
L 210.460323 103.110151 
L 210.566013 94.126891 
L 210.541974 85.370924 
L 211.038768 76.830911 
L 212.011168 68.496115 
L 212.21406 60.356459 
L 211.768291 52.402371 
L 211.820884 44.624679 
L 211.728132 37.0147 
L 211.060535 29.563691 
L 210.588058 22.263651 
L 210.2322 15.105977 
L 209.187702 8.082612 
L 206.661456 1.185045 
L 205.971372 -1 
" clip-path="url(#pfa38d1741e)" style="fill: none; stroke: #365c8d; stroke-width: 1.5; stroke-linecap: square"/>
   </g>
   <g id="line2d_18">
    <path d="M 204.549621 505 
L 204.556818 502.553249 
L 205.943325 474.712425 
L 208.411036 448.959542 
L 209.191381 425.001903 
L 210.027669 402.604451 
L 209.902048 381.575671 
L 208.92454 361.757285 
L 208.016361 343.017182 
L 207.839679 325.243799 
L 207.623264 308.341957 
L 207.299463 292.230057 
L 207.016035 276.837404 
L 206.573197 262.102352 
L 206.360725 247.970971 
L 206.40108 234.395703 
L 206.35742 221.334262 
L 205.963995 208.749218 
L 207.11724 196.606934 
L 207.772758 184.877293 
L 208.440371 173.533153 
L 209.059732 162.54994 
L 209.206961 151.905373 
L 209.526046 141.579187 
L 210.442176 131.552829 
L 211.125705 121.809318 
L 211.624599 112.333301 
L 212.0435 103.110151 
L 212.12598 94.126891 
L 212.010141 85.370924 
L 212.120267 76.830911 
L 212.505546 68.496115 
L 212.247756 60.356459 
L 211.576361 52.402371 
L 210.841468 44.624679 
L 209.386533 37.0147 
L 208.3503 29.563691 
L 208.786285 22.263651 
L 209.534273 15.105977 
L 209.229133 8.082612 
L 206.736388 1.185045 
L 206.011062 -1 
" clip-path="url(#pfa38d1741e)" style="fill: none; stroke: #277f8e; stroke-width: 1.5; stroke-linecap: square"/>
   </g>
   <g id="line2d_19">
    <path d="M 208.484892 505 
L 208.655897 502.553249 
L 211.542403 474.712425 
L 215.308641 448.959542 
L 215.103684 425.001903 
L 213.073161 402.604451 
L 211.595557 381.575671 
L 211.053442 361.757285 
L 210.47883 343.017182 
L 210.134498 325.243799 
L 209.857247 308.341957 
L 209.256048 292.230057 
L 208.818655 276.837404 
L 208.463583 262.102352 
L 208.219955 247.970971 
L 208.30073 234.395703 
L 207.739297 221.334262 
L 206.526639 208.749218 
L 207.810661 196.606934 
L 208.401598 184.877293 
L 209.266168 173.533153 
L 210.251025 162.54994 
L 211.269694 151.905373 
L 212.181884 141.579187 
L 213.989857 131.552829 
L 214.917724 121.809318 
L 215.129956 112.333301 
L 215.373684 103.110151 
L 215.390062 94.126891 
L 214.992984 85.370924 
L 214.961377 76.830911 
L 215.445182 68.496115 
L 215.778259 60.356459 
L 215.66224 52.402371 
L 214.677719 44.624679 
L 212.896511 37.0147 
L 211.445153 29.563691 
L 211.572441 22.263651 
L 212.057781 15.105977 
L 210.402511 8.082612 
L 204.653861 1.185045 
L 203.036878 -1 
" clip-path="url(#pfa38d1741e)" style="fill: none; stroke: #1fa187; stroke-width: 1.5; stroke-linecap: square"/>
   </g>
   <g id="line2d_20">
    <path d="M 202.2649 505 
L 202.247035 502.553249 
L 203.589156 474.712425 
L 207.109032 448.959542 
L 209.869224 425.001903 
L 209.480584 402.604451 
L 208.687634 381.575671 
L 207.770622 361.757285 
L 206.992132 343.017182 
L 207.094976 325.243799 
L 208.228881 308.341957 
L 208.095812 292.230057 
L 207.91639 276.837404 
L 207.680032 262.102352 
L 207.58915 247.970971 
L 207.393723 234.395703 
L 207.847423 221.334262 
L 208.990213 208.749218 
L 208.100824 196.606934 
L 206.83427 184.877293 
L 206.476348 173.533153 
L 206.124844 162.54994 
L 206.436791 151.905373 
L 207.111158 141.579187 
L 207.662818 131.552829 
L 208.117186 121.809318 
L 209.502936 112.333301 
L 210.861328 103.110151 
L 211.793339 94.126891 
L 212.411576 85.370924 
L 212.574247 76.830911 
L 212.550403 68.496115 
L 212.841375 60.356459 
L 213.581933 52.402371 
L 212.908457 44.624679 
L 210.653365 37.0147 
L 209.306399 29.563691 
L 210.513108 22.263651 
L 212.57844 15.105977 
L 212.916207 8.082612 
L 208.519762 1.185045 
L 206.89996 -1 
" clip-path="url(#pfa38d1741e)" style="fill: none; stroke: #4ac16d; stroke-width: 1.5; stroke-linecap: square"/>
   </g>
   <g id="line2d_21">
    <path d="M 204.467192 505 
L 204.735909 502.553249 
L 209.712742 474.712425 
L 211.802176 448.959542 
L 212.689205 425.001903 
L 213.771541 402.604451 
L 213.76657 381.575671 
L 214.049796 361.757285 
L 213.523284 343.017182 
L 212.73697 325.243799 
L 211.350917 308.341957 
L 210.867919 292.230057 
L 210.542502 276.837404 
L 210.10037 262.102352 
L 209.541149 247.970971 
L 208.834009 234.395703 
L 208.670604 221.334262 
L 209.469186 208.749218 
L 208.234602 196.606934 
L 207.810615 184.877293 
L 207.580801 173.533153 
L 207.370912 162.54994 
L 208.124716 151.905373 
L 209.322607 141.579187 
L 210.393242 131.552829 
L 212.001557 121.809318 
L 214.461559 112.333301 
L 216.938799 103.110151 
L 219.200776 94.126891 
L 220.896195 85.370924 
L 222.160799 76.830911 
L 223.32679 68.496115 
L 225.045092 60.356459 
L 226.936042 52.402371 
L 226.590838 44.624679 
L 223.83569 37.0147 
L 221.462004 29.563691 
L 222.655219 22.263651 
L 225.661649 15.105977 
L 226.458657 8.082612 
L 219.242527 1.185045 
L 216.329275 -1 
" clip-path="url(#pfa38d1741e)" style="fill: none; stroke: #a0da39; stroke-width: 1.5; stroke-linecap: square"/>
   </g>
   <g id="line2d_22">
    <path d="M 205.881775 505 
L 206.285595 502.553249 
L 212.173859 474.712425 
L 216.588113 448.959542 
L 219.23479 425.001903 
L 219.504173 402.604451 
L 218.338927 381.575671 
L 216.746671 361.757285 
L 214.887662 343.017182 
L 213.552172 325.243799 
L 213.952363 308.341957 
L 213.402544 292.230057 
L 212.649793 276.837404 
L 212.112583 262.102352 
L 211.791049 247.970971 
L 211.703911 234.395703 
L 211.48068 221.334262 
L 207.216166 208.749218 
L 207.589047 196.606934 
L 209.576424 184.877293 
L 209.936936 173.533153 
L 210.882658 162.54994 
L 212.115425 151.905373 
L 212.855206 141.579187 
L 215.51862 131.552829 
L 219.591853 121.809318 
L 220.667721 112.333301 
L 221.964232 103.110151 
L 222.750291 94.126891 
L 222.412685 85.370924 
L 222.021477 76.830911 
L 223.691291 68.496115 
L 226.782423 60.356459 
L 229.83457 52.402371 
L 231.289001 44.624679 
L 230.05395 37.0147 
L 227.044427 29.563691 
L 226.791303 22.263651 
L 228.827577 15.105977 
L 228.462255 8.082612 
L 218.412077 1.185045 
L 214.763425 -1 
" clip-path="url(#pfa38d1741e)" style="fill: none; stroke: #fde725; stroke-width: 1.5; stroke-linecap: square"/>
   </g>
   <g id="line2d_23">
    <path d="M 205.948068 456.568 
L 205.948068 41.856 
" clip-path="url(#pfa38d1741e)" style="fill: none; stroke-dasharray: 2.96,1.28; stroke-dashoffset: 0; stroke: #000000; stroke-width: 0.8"/>
   </g>
   <g id="patch_3">
    <path d="M 44.66 456.568 
L 44.66 41.856 
" style="fill: none; stroke: #000000; stroke-width: 0.8; stroke-linejoin: miter; stroke-linecap: square"/>
   </g>
   <g id="patch_4">
    <path d="M 349.2 456.568 
L 349.2 41.856 
" style="fill: none; stroke: #000000; stroke-width: 0.8; stroke-linejoin: miter; stroke-linecap: square"/>
   </g>
   <g id="patch_5">
    <path d="M 44.66 456.568 
L 349.2 456.568 
" style="fill: none; stroke: #000000; stroke-width: 0.8; stroke-linejoin: miter; stroke-linecap: square"/>
   </g>
   <g id="patch_6">
    <path d="M 44.66 41.856 
L 349.2 41.856 
" style="fill: none; stroke: #000000; stroke-width: 0.8; stroke-linejoin: miter; stroke-linecap: square"/>
   </g>
   <g id="text_17">
    <!-- Global-mean radiative-heating anomaly by decade -->
    <g transform="translate(44.229062 22.418625) scale(0.12 -0.12)">
     <defs>
      <path id="DejaVuSans-47" d="M 3809 666 
L 3809 1919 
L 2778 1919 
L 2778 2438 
L 4434 2438 
L 4434 434 
Q 4069 175 3628 42 
Q 3188 -91 2688 -91 
Q 1594 -91 976 548 
Q 359 1188 359 2328 
Q 359 3472 976 4111 
Q 1594 4750 2688 4750 
Q 3144 4750 3555 4637 
Q 3966 4525 4313 4306 
L 4313 3634 
Q 3963 3931 3569 4081 
Q 3175 4231 2741 4231 
Q 1884 4231 1454 3753 
Q 1025 3275 1025 2328 
Q 1025 1384 1454 906 
Q 1884 428 2741 428 
Q 3075 428 3337 486 
Q 3600 544 3809 666 
z
" transform="scale(0.015625)"/>
      <path id="DejaVuSans-6f" d="M 1959 3097 
Q 1497 3097 1228 2736 
Q 959 2375 959 1747 
Q 959 1119 1226 758 
Q 1494 397 1959 397 
Q 2419 397 2687 759 
Q 2956 1122 2956 1747 
Q 2956 2369 2687 2733 
Q 2419 3097 1959 3097 
z
M 1959 3584 
Q 2709 3584 3137 3096 
Q 3566 2609 3566 1747 
Q 3566 888 3137 398 
Q 2709 -91 1959 -91 
Q 1206 -91 779 398 
Q 353 888 353 1747 
Q 353 2609 779 3096 
Q 1206 3584 1959 3584 
z
" transform="scale(0.015625)"/>
      <path id="DejaVuSans-62" d="M 3116 1747 
Q 3116 2381 2855 2742 
Q 2594 3103 2138 3103 
Q 1681 3103 1420 2742 
Q 1159 2381 1159 1747 
Q 1159 1113 1420 752 
Q 1681 391 2138 391 
Q 2594 391 2855 752 
Q 3116 1113 3116 1747 
z
M 1159 2969 
Q 1341 3281 1617 3432 
Q 1894 3584 2278 3584 
Q 2916 3584 3314 3078 
Q 3713 2572 3713 1747 
Q 3713 922 3314 415 
Q 2916 -91 2278 -91 
Q 1894 -91 1617 61 
Q 1341 213 1159 525 
L 1159 0 
L 581 0 
L 581 4863 
L 1159 4863 
L 1159 2969 
z
" transform="scale(0.015625)"/>
      <path id="DejaVuSans-2d" d="M 313 2009 
L 1997 2009 
L 1997 1497 
L 313 1497 
L 313 2009 
z
" transform="scale(0.015625)"/>
      <path id="DejaVuSans-76" d="M 191 3500 
L 800 3500 
L 1894 563 
L 2988 3500 
L 3597 3500 
L 2284 0 
L 1503 0 
L 191 3500 
z
" transform="scale(0.015625)"/>
      <path id="DejaVuSans-68" d="M 3513 2113 
L 3513 0 
L 2938 0 
L 2938 2094 
Q 2938 2591 2744 2837 
Q 2550 3084 2163 3084 
Q 1697 3084 1428 2787 
Q 1159 2491 1159 1978 
L 1159 0 
L 581 0 
L 581 4863 
L 1159 4863 
L 1159 2956 
Q 1366 3272 1645 3428 
Q 1925 3584 2291 3584 
Q 2894 3584 3203 3211 
Q 3513 2838 3513 2113 
z
" transform="scale(0.015625)"/>
      <path id="DejaVuSans-67" d="M 2906 1791 
Q 2906 2416 2648 2759 
Q 2391 3103 1925 3103 
Q 1463 3103 1205 2759 
Q 947 2416 947 1791 
Q 947 1169 1205 825 
Q 1463 481 1925 481 
Q 2391 481 2648 825 
Q 2906 1169 2906 1791 
z
M 3481 434 
Q 3481 -459 3084 -895 
Q 2688 -1331 1869 -1331 
Q 1566 -1331 1297 -1286 
Q 1028 -1241 775 -1147 
L 775 -588 
Q 1028 -725 1275 -790 
Q 1522 -856 1778 -856 
Q 2344 -856 2625 -561 
Q 2906 -266 2906 331 
L 2906 616 
Q 2728 306 2450 153 
Q 2172 0 1784 0 
Q 1141 0 747 490 
Q 353 981 353 1791 
Q 353 2603 747 3093 
Q 1141 3584 1784 3584 
Q 2172 3584 2450 3431 
Q 2728 3278 2906 2969 
L 2906 3500 
L 3481 3500 
L 3481 434 
z
" transform="scale(0.015625)"/>
      <path id="DejaVuSans-63" d="M 3122 3366 
L 3122 2828 
Q 2878 2963 2633 3030 
Q 2388 3097 2138 3097 
Q 1578 3097 1268 2742 
Q 959 2388 959 1747 
Q 959 1106 1268 751 
Q 1578 397 2138 397 
Q 2388 397 2633 464 
Q 2878 531 3122 666 
L 3122 134 
Q 2881 22 2623 -34 
Q 2366 -91 2075 -91 
Q 1284 -91 818 406 
Q 353 903 353 1747 
Q 353 2603 823 3093 
Q 1294 3584 2113 3584 
Q 2378 3584 2631 3529 
Q 2884 3475 3122 3366 
z
" transform="scale(0.015625)"/>
     </defs>
     <use xlink:href="#DejaVuSans-47"/>
     <use xlink:href="#DejaVuSans-6c" transform="translate(77.490234 0)"/>
     <use xlink:href="#DejaVuSans-6f" transform="translate(105.273438 0)"/>
     <use xlink:href="#DejaVuSans-62" transform="translate(166.455078 0)"/>
     <use xlink:href="#DejaVuSans-61" transform="translate(229.931641 0)"/>
     <use xlink:href="#DejaVuSans-6c" transform="translate(291.210938 0)"/>
     <use xlink:href="#DejaVuSans-2d" transform="translate(318.994141 0)"/>
     <use xlink:href="#DejaVuSans-6d" transform="translate(355.078125 0)"/>
     <use xlink:href="#DejaVuSans-65" transform="translate(452.490234 0)"/>
     <use xlink:href="#DejaVuSans-61" transform="translate(514.013672 0)"/>
     <use xlink:href="#DejaVuSans-6e" transform="translate(575.292969 0)"/>
     <use xlink:href="#DejaVuSans-20" transform="translate(638.671875 0)"/>
     <use xlink:href="#DejaVuSans-72" transform="translate(670.458984 0)"/>
     <use xlink:href="#DejaVuSans-61" transform="translate(711.572266 0)"/>
     <use xlink:href="#DejaVuSans-64" transform="translate(772.851562 0)"/>
     <use xlink:href="#DejaVuSans-69" transform="translate(836.328125 0)"/>
     <use xlink:href="#DejaVuSans-61" transform="translate(864.111328 0)"/>
     <use xlink:href="#DejaVuSans-74" transform="translate(925.390625 0)"/>
     <use xlink:href="#DejaVuSans-69" transform="translate(964.599609 0)"/>
     <use xlink:href="#DejaVuSans-76" transform="translate(992.382812 0)"/>
     <use xlink:href="#DejaVuSans-65" transform="translate(1051.5625 0)"/>
     <use xlink:href="#DejaVuSans-2d" transform="translate(1113.085938 0)"/>
     <use xlink:href="#DejaVuSans-68" transform="translate(1149.169922 0)"/>
     <use xlink:href="#DejaVuSans-65" transform="translate(1212.548828 0)"/>
     <use xlink:href="#DejaVuSans-61" transform="translate(1274.072266 0)"/>
     <use xlink:href="#DejaVuSans-74" transform="translate(1335.351562 0)"/>
     <use xlink:href="#DejaVuSans-69" transform="translate(1374.560547 0)"/>
     <use xlink:href="#DejaVuSans-6e" transform="translate(1402.34375 0)"/>
     <use xlink:href="#DejaVuSans-67" transform="translate(1465.722656 0)"/>
     <use xlink:href="#DejaVuSans-20" transform="translate(1529.199219 0)"/>
     <use xlink:href="#DejaVuSans-61" transform="translate(1560.986328 0)"/>
     <use xlink:href="#DejaVuSans-6e" transform="translate(1622.265625 0)"/>
     <use xlink:href="#DejaVuSans-6f" transform="translate(1685.644531 0)"/>
     <use xlink:href="#DejaVuSans-6d" transform="translate(1746.826172 0)"/>
     <use xlink:href="#DejaVuSans-61" transform="translate(1844.238281 0)"/>
     <use xlink:href="#DejaVuSans-6c" transform="translate(1905.517578 0)"/>
     <use xlink:href="#DejaVuSans-79" transform="translate(1933.300781 0)"/>
     <use xlink:href="#DejaVuSans-20" transform="translate(1992.480469 0)"/>
     <use xlink:href="#DejaVuSans-62" transform="translate(2024.267578 0)"/>
     <use xlink:href="#DejaVuSans-79" transform="translate(2087.744141 0)"/>
     <use xlink:href="#DejaVuSans-20" transform="translate(2146.923828 0)"/>
     <use xlink:href="#DejaVuSans-64" transform="translate(2178.710938 0)"/>
     <use xlink:href="#DejaVuSans-65" transform="translate(2242.1875 0)"/>
     <use xlink:href="#DejaVuSans-63" transform="translate(2303.710938 0)"/>
     <use xlink:href="#DejaVuSans-61" transform="translate(2358.691406 0)"/>
     <use xlink:href="#DejaVuSans-64" transform="translate(2419.970703 0)"/>
     <use xlink:href="#DejaVuSans-65" transform="translate(2483.447266 0)"/>
    </g>
    <!-- (G6sulfur – G6solar) -->
    <g transform="translate(136.917812 35.856) scale(0.12 -0.12)">
     <defs>
      <path id="DejaVuSans-73" d="M 2834 3397 
L 2834 2853 
Q 2591 2978 2328 3040 
Q 2066 3103 1784 3103 
Q 1356 3103 1142 2972 
Q 928 2841 928 2578 
Q 928 2378 1081 2264 
Q 1234 2150 1697 2047 
L 1894 2003 
Q 2506 1872 2764 1633 
Q 3022 1394 3022 966 
Q 3022 478 2636 193 
Q 2250 -91 1575 -91 
Q 1294 -91 989 -36 
Q 684 19 347 128 
L 347 722 
Q 666 556 975 473 
Q 1284 391 1588 391 
Q 1994 391 2212 530 
Q 2431 669 2431 922 
Q 2431 1156 2273 1281 
Q 2116 1406 1581 1522 
L 1381 1569 
Q 847 1681 609 1914 
Q 372 2147 372 2553 
Q 372 3047 722 3315 
Q 1072 3584 1716 3584 
Q 2034 3584 2315 3537 
Q 2597 3491 2834 3397 
z
" transform="scale(0.015625)"/>
      <path id="DejaVuSans-66" d="M 2375 4863 
L 2375 4384 
L 1825 4384 
Q 1516 4384 1395 4259 
Q 1275 4134 1275 3809 
L 1275 3500 
L 2222 3500 
L 2222 3053 
L 1275 3053 
L 1275 0 
L 697 0 
L 697 3053 
L 147 3053 
L 147 3500 
L 697 3500 
L 697 3744 
Q 697 4328 969 4595 
Q 1241 4863 1831 4863 
L 2375 4863 
z
" transform="scale(0.015625)"/>
      <path id="DejaVuSans-2013" d="M 313 1978 
L 2888 1978 
L 2888 1528 
L 313 1528 
L 313 1978 
z
" transform="scale(0.015625)"/>
     </defs>
     <use xlink:href="#DejaVuSans-28"/>
     <use xlink:href="#DejaVuSans-47" transform="translate(39.013672 0)"/>
     <use xlink:href="#DejaVuSans-36" transform="translate(116.503906 0)"/>
     <use xlink:href="#DejaVuSans-73" transform="translate(180.126953 0)"/>
     <use xlink:href="#DejaVuSans-75" transform="translate(232.226562 0)"/>
     <use xlink:href="#DejaVuSans-6c" transform="translate(295.605469 0)"/>
     <use xlink:href="#DejaVuSans-66" transform="translate(323.388672 0)"/>
     <use xlink:href="#DejaVuSans-75" transform="translate(358.59375 0)"/>
     <use xlink:href="#DejaVuSans-72" transform="translate(421.972656 0)"/>
     <use xlink:href="#DejaVuSans-20" transform="translate(463.085938 0)"/>
     <use xlink:href="#DejaVuSans-2013" transform="translate(494.873047 0)"/>
     <use xlink:href="#DejaVuSans-20" transform="translate(544.873047 0)"/>
     <use xlink:href="#DejaVuSans-47" transform="translate(576.660156 0)"/>
     <use xlink:href="#DejaVuSans-36" transform="translate(654.150391 0)"/>
     <use xlink:href="#DejaVuSans-73" transform="translate(717.773438 0)"/>
     <use xlink:href="#DejaVuSans-6f" transform="translate(769.873047 0)"/>
     <use xlink:href="#DejaVuSans-6c" transform="translate(831.054688 0)"/>
     <use xlink:href="#DejaVuSans-61" transform="translate(858.837891 0)"/>
     <use xlink:href="#DejaVuSans-72" transform="translate(920.117188 0)"/>
     <use xlink:href="#DejaVuSans-29" transform="translate(961.230469 0)"/>
    </g>
   </g>
   <g id="legend_1">
    <g id="patch_7">
     <path d="M 279.540625 181.959125 
L 342.2 181.959125 
Q 344.2 181.959125 344.2 179.959125 
L 344.2 48.856 
Q 344.2 46.856 342.2 46.856 
L 279.540625 46.856 
Q 277.540625 46.856 277.540625 48.856 
L 277.540625 179.959125 
Q 277.540625 181.959125 279.540625 181.959125 
z
" style="fill: #ffffff; opacity: 0.8; stroke: #cccccc; stroke-linejoin: miter"/>
    </g>
    <g id="text_18">
     <!-- Decade -->
     <g transform="translate(291.879687 58.454437) scale(0.1 -0.1)">
      <defs>
       <path id="DejaVuSans-44" d="M 1259 4147 
L 1259 519 
L 2022 519 
Q 2988 519 3436 956 
Q 3884 1394 3884 2338 
Q 3884 3275 3436 3711 
Q 2988 4147 2022 4147 
L 1259 4147 
z
M 628 4666 
L 1925 4666 
Q 3281 4666 3915 4102 
Q 4550 3538 4550 2338 
Q 4550 1131 3912 565 
Q 3275 0 1925 0 
L 628 0 
L 628 4666 
z
" transform="scale(0.015625)"/>
      </defs>
      <use xlink:href="#DejaVuSans-44"/>
      <use xlink:href="#DejaVuSans-65" transform="translate(77.001953 0)"/>
      <use xlink:href="#DejaVuSans-63" transform="translate(138.525391 0)"/>
      <use xlink:href="#DejaVuSans-61" transform="translate(193.505859 0)"/>
      <use xlink:href="#DejaVuSans-64" transform="translate(254.785156 0)"/>
      <use xlink:href="#DejaVuSans-65" transform="translate(318.261719 0)"/>
     </g>
    </g>
    <g id="line2d_24">
     <path d="M 281.540625 69.632562 
L 291.540625 69.632562 
L 301.540625 69.632562 
" style="fill: none; stroke: #440154; stroke-width: 1.5; stroke-linecap: square"/>
    </g>
    <g id="text_19">
     <!-- 2020s -->
     <g transform="translate(309.540625 73.132562) scale(0.1 -0.1)">
      <use xlink:href="#DejaVuSans-32"/>
      <use xlink:href="#DejaVuSans-30" transform="translate(63.623047 0)"/>
      <use xlink:href="#DejaVuSans-32" transform="translate(127.246094 0)"/>
      <use xlink:href="#DejaVuSans-30" transform="translate(190.869141 0)"/>
      <use xlink:href="#DejaVuSans-73" transform="translate(254.492188 0)"/>
     </g>
    </g>
    <g id="line2d_25">
     <path d="M 281.540625 84.310687 
L 291.540625 84.310687 
L 301.540625 84.310687 
" style="fill: none; stroke: #46327e; stroke-width: 1.5; stroke-linecap: square"/>
    </g>
    <g id="text_20">
     <!-- 2030s -->
     <g transform="translate(309.540625 87.810687) scale(0.1 -0.1)">
      <use xlink:href="#DejaVuSans-32"/>
      <use xlink:href="#DejaVuSans-30" transform="translate(63.623047 0)"/>
      <use xlink:href="#DejaVuSans-33" transform="translate(127.246094 0)"/>
      <use xlink:href="#DejaVuSans-30" transform="translate(190.869141 0)"/>
      <use xlink:href="#DejaVuSans-73" transform="translate(254.492188 0)"/>
     </g>
    </g>
    <g id="line2d_26">
     <path d="M 281.540625 98.988812 
L 291.540625 98.988812 
L 301.540625 98.988812 
" style="fill: none; stroke: #365c8d; stroke-width: 1.5; stroke-linecap: square"/>
    </g>
    <g id="text_21">
     <!-- 2040s -->
     <g transform="translate(309.540625 102.488812) scale(0.1 -0.1)">
      <use xlink:href="#DejaVuSans-32"/>
      <use xlink:href="#DejaVuSans-30" transform="translate(63.623047 0)"/>
      <use xlink:href="#DejaVuSans-34" transform="translate(127.246094 0)"/>
      <use xlink:href="#DejaVuSans-30" transform="translate(190.869141 0)"/>
      <use xlink:href="#DejaVuSans-73" transform="translate(254.492188 0)"/>
     </g>
    </g>
    <g id="line2d_27">
     <path d="M 281.540625 113.666937 
L 291.540625 113.666937 
L 301.540625 113.666937 
" style="fill: none; stroke: #277f8e; stroke-width: 1.5; stroke-linecap: square"/>
    </g>
    <g id="text_22">
     <!-- 2050s -->
     <g transform="translate(309.540625 117.166937) scale(0.1 -0.1)">
      <defs>
       <path id="DejaVuSans-35" d="M 691 4666 
L 3169 4666 
L 3169 4134 
L 1269 4134 
L 1269 2991 
Q 1406 3038 1543 3061 
Q 1681 3084 1819 3084 
Q 2600 3084 3056 2656 
Q 3513 2228 3513 1497 
Q 3513 744 3044 326 
Q 2575 -91 1722 -91 
Q 1428 -91 1123 -41 
Q 819 9 494 109 
L 494 744 
Q 775 591 1075 516 
Q 1375 441 1709 441 
Q 2250 441 2565 725 
Q 2881 1009 2881 1497 
Q 2881 1984 2565 2268 
Q 2250 2553 1709 2553 
Q 1456 2553 1204 2497 
Q 953 2441 691 2322 
L 691 4666 
z
" transform="scale(0.015625)"/>
      </defs>
      <use xlink:href="#DejaVuSans-32"/>
      <use xlink:href="#DejaVuSans-30" transform="translate(63.623047 0)"/>
      <use xlink:href="#DejaVuSans-35" transform="translate(127.246094 0)"/>
      <use xlink:href="#DejaVuSans-30" transform="translate(190.869141 0)"/>
      <use xlink:href="#DejaVuSans-73" transform="translate(254.492188 0)"/>
     </g>
    </g>
    <g id="line2d_28">
     <path d="M 281.540625 128.345062 
L 291.540625 128.345062 
L 301.540625 128.345062 
" style="fill: none; stroke: #1fa187; stroke-width: 1.5; stroke-linecap: square"/>
    </g>
    <g id="text_23">
     <!-- 2060s -->
     <g transform="translate(309.540625 131.845062) scale(0.1 -0.1)">
      <use xlink:href="#DejaVuSans-32"/>
      <use xlink:href="#DejaVuSans-30" transform="translate(63.623047 0)"/>
      <use xlink:href="#DejaVuSans-36" transform="translate(127.246094 0)"/>
      <use xlink:href="#DejaVuSans-30" transform="translate(190.869141 0)"/>
      <use xlink:href="#DejaVuSans-73" transform="translate(254.492188 0)"/>
     </g>
    </g>
    <g id="line2d_29">
     <path d="M 281.540625 143.023187 
L 291.540625 143.023187 
L 301.540625 143.023187 
" style="fill: none; stroke: #4ac16d; stroke-width: 1.5; stroke-linecap: square"/>
    </g>
    <g id="text_24">
     <!-- 2070s -->
     <g transform="translate(309.540625 146.523187) scale(0.1 -0.1)">
      <defs>
       <path id="DejaVuSans-37" d="M 525 4666 
L 3525 4666 
L 3525 4397 
L 1831 0 
L 1172 0 
L 2766 4134 
L 525 4134 
L 525 4666 
z
" transform="scale(0.015625)"/>
      </defs>
      <use xlink:href="#DejaVuSans-32"/>
      <use xlink:href="#DejaVuSans-30" transform="translate(63.623047 0)"/>
      <use xlink:href="#DejaVuSans-37" transform="translate(127.246094 0)"/>
      <use xlink:href="#DejaVuSans-30" transform="translate(190.869141 0)"/>
      <use xlink:href="#DejaVuSans-73" transform="translate(254.492188 0)"/>
     </g>
    </g>
    <g id="line2d_30">
     <path d="M 281.540625 157.701312 
L 291.540625 157.701312 
L 301.540625 157.701312 
" style="fill: none; stroke: #a0da39; stroke-width: 1.5; stroke-linecap: square"/>
    </g>
    <g id="text_25">
     <!-- 2080s -->
     <g transform="translate(309.540625 161.201312) scale(0.1 -0.1)">
      <use xlink:href="#DejaVuSans-32"/>
      <use xlink:href="#DejaVuSans-30" transform="translate(63.623047 0)"/>
      <use xlink:href="#DejaVuSans-38" transform="translate(127.246094 0)"/>
      <use xlink:href="#DejaVuSans-30" transform="translate(190.869141 0)"/>
      <use xlink:href="#DejaVuSans-73" transform="translate(254.492188 0)"/>
     </g>
    </g>
    <g id="line2d_31">
     <path d="M 281.540625 172.379437 
L 291.540625 172.379437 
L 301.540625 172.379437 
" style="fill: none; stroke: #fde725; stroke-width: 1.5; stroke-linecap: square"/>
    </g>
    <g id="text_26">
     <!-- 2090s -->
     <g transform="translate(309.540625 175.879437) scale(0.1 -0.1)">
      <defs>
       <path id="DejaVuSans-39" d="M 703 97 
L 703 672 
Q 941 559 1184 500 
Q 1428 441 1663 441 
Q 2288 441 2617 861 
Q 2947 1281 2994 2138 
Q 2813 1869 2534 1725 
Q 2256 1581 1919 1581 
Q 1219 1581 811 2004 
Q 403 2428 403 3163 
Q 403 3881 828 4315 
Q 1253 4750 1959 4750 
Q 2769 4750 3195 4129 
Q 3622 3509 3622 2328 
Q 3622 1225 3098 567 
Q 2575 -91 1691 -91 
Q 1453 -91 1209 -44 
Q 966 3 703 97 
z
M 1959 2075 
Q 2384 2075 2632 2365 
Q 2881 2656 2881 3163 
Q 2881 3666 2632 3958 
Q 2384 4250 1959 4250 
Q 1534 4250 1286 3958 
Q 1038 3666 1038 3163 
Q 1038 2656 1286 2365 
Q 1534 2075 1959 2075 
z
" transform="scale(0.015625)"/>
      </defs>
      <use xlink:href="#DejaVuSans-32"/>
      <use xlink:href="#DejaVuSans-30" transform="translate(63.623047 0)"/>
      <use xlink:href="#DejaVuSans-39" transform="translate(127.246094 0)"/>
      <use xlink:href="#DejaVuSans-30" transform="translate(190.869141 0)"/>
      <use xlink:href="#DejaVuSans-73" transform="translate(254.492188 0)"/>
     </g>
    </g>
   </g>
  </g>
 </g>
 <defs>
  <clipPath id="pfa38d1741e">
   <rect x="44.66" y="41.856" width="304.54" height="414.712"/>
  </clipPath>
 </defs>
</svg>
