<?xml version="1.0" encoding="utf-8" standalone="no"?>
<!DOCTYPE svg PUBLIC "-//W3C//DTD SVG 1.1//EN"
  "http://www.w3.org/Graphics/SVG/1.1/DTD/svg11.dtd">
<svg xmlns:xlink="http://www.w3.org/1999/xlink" width="432pt" height="288pt" viewBox="0 0 432 288" xmlns="http://www.w3.org/2000/svg" version="1.1">
 <metadata>
  <rdf:RDF xmlns:dc="http://purl.org/dc/elements/1.1/" xmlns:cc="http://creativecommons.org/ns#" xmlns:rdf="http://www.w3.org/1999/02/22-rdf-syntax-ns#">
   <cc:Work>
    <dc:type rdf:resource="http://purl.org/dc/dcmitype/StillImage"/>
    <dc:date>2025-05-20T00:26:20.323949</dc:date>
    <dc:format>image/svg+xml</dc:format>
    <dc:creator>
     <cc:Agent>
      <dc:title>Matplotlib v3.10.3, https://matplotlib.org/</dc:title>
     </cc:Agent>
    </dc:creator>
   </cc:Work>
  </rdf:RDF>
 </metadata>
 <defs>
  <style type="text/css">*{stroke-linejoin: round; stroke-linecap: butt}</style>
 </defs>
 <g id="figure_1">
  <g id="patch_1">
   <path d="M 0 288 
L 432 288 
L 432 0 
L 0 0 
z
" style="fill: #ffffff"/>
  </g>
  <g id="axes_1">
   <g id="patch_2">
    <path d="M 50.87 246.04 
L 421.2 246.04 
L 421.2 26.88 
L 50.87 26.88 
z
" style="fill: #ffffff"/>
   </g>
   <g id="patch_3">
    <path d="M 67.703182 246.04 
L 76.119773 246.04 
L 76.119773 240.847865 
L 67.703182 240.847865 
z
" clip-path="url(#p75fd47ad00)" style="fill: #6a5acd; opacity: 0.7"/>
   </g>
   <g id="patch_4">
    <path d="M 76.119773 246.04 
L 84.536364 246.04 
L 84.536364 245.001573 
L 76.119773 245.001573 
z
" clip-path="url(#p75fd47ad00)" style="fill: #6a5acd; opacity: 0.7"/>
   </g>
   <g id="patch_5">
    <path d="M 84.536364 246.04 
L 92.952955 246.04 
L 92.952955 245.001573 
L 84.536364 245.001573 
z
" clip-path="url(#p75fd47ad00)" style="fill: #6a5acd; opacity: 0.7"/>
   </g>
   <g id="patch_6">
    <path d="M 92.952955 246.04 
L 101.369545 246.04 
L 101.369545 242.924719 
L 92.952955 242.924719 
z
" clip-path="url(#p75fd47ad00)" style="fill: #6a5acd; opacity: 0.7"/>
   </g>
   <g id="patch_7">
    <path d="M 101.369545 246.04 
L 109.786136 246.04 
L 109.786136 242.924719 
L 101.369545 242.924719 
z
" clip-path="url(#p75fd47ad00)" style="fill: #6a5acd; opacity: 0.7"/>
   </g>
   <g id="patch_8">
    <path d="M 109.786136 246.04 
L 118.202727 246.04 
L 118.202727 235.655731 
L 109.786136 235.655731 
z
" clip-path="url(#p75fd47ad00)" style="fill: #6a5acd; opacity: 0.7"/>
   </g>
   <g id="patch_9">
    <path d="M 118.202727 246.04 
L 126.619318 246.04 
L 126.619318 227.348316 
L 118.202727 227.348316 
z
" clip-path="url(#p75fd47ad00)" style="fill: #6a5acd; opacity: 0.7"/>
   </g>
   <g id="patch_10">
    <path d="M 126.619318 246.04 
L 135.035909 246.04 
L 135.035909 235.655731 
L 126.619318 235.655731 
z
" clip-path="url(#p75fd47ad00)" style="fill: #6a5acd; opacity: 0.7"/>
   </g>
   <g id="patch_11">
    <path d="M 135.035909 246.04 
L 143.4525 246.04 
L 143.4525 223.194608 
L 135.035909 223.194608 
z
" clip-path="url(#p75fd47ad00)" style="fill: #6a5acd; opacity: 0.7"/>
   </g>
   <g id="patch_12">
    <path d="M 143.4525 246.04 
L 151.869091 246.04 
L 151.869091 206.579777 
L 143.4525 206.579777 
z
" clip-path="url(#p75fd47ad00)" style="fill: #6a5acd; opacity: 0.7"/>
   </g>
   <g id="patch_13">
    <path d="M 151.869091 246.04 
L 160.285682 246.04 
L 160.285682 197.233935 
L 151.869091 197.233935 
z
" clip-path="url(#p75fd47ad00)" style="fill: #6a5acd; opacity: 0.7"/>
   </g>
   <g id="patch_14">
    <path d="M 160.285682 246.04 
L 168.702273 246.04 
L 168.702273 186.849666 
L 160.285682 186.849666 
z
" clip-path="url(#p75fd47ad00)" style="fill: #6a5acd; opacity: 0.7"/>
   </g>
   <g id="patch_15">
    <path d="M 168.702273 246.04 
L 177.118864 246.04 
L 177.118864 170.234835 
L 168.702273 170.234835 
z
" clip-path="url(#p75fd47ad00)" style="fill: #6a5acd; opacity: 0.7"/>
   </g>
   <g id="patch_16">
    <path d="M 177.118864 246.04 
L 185.535455 246.04 
L 185.535455 133.889893 
L 177.118864 133.889893 
z
" clip-path="url(#p75fd47ad00)" style="fill: #6a5acd; opacity: 0.7"/>
   </g>
   <g id="patch_17">
    <path d="M 185.535455 246.04 
L 193.952045 246.04 
L 193.952045 147.389443 
L 185.535455 147.389443 
z
" clip-path="url(#p75fd47ad00)" style="fill: #6a5acd; opacity: 0.7"/>
   </g>
   <g id="patch_18">
    <path d="M 193.952045 246.04 
L 202.368636 246.04 
L 202.368636 98.583378 
L 193.952045 98.583378 
z
" clip-path="url(#p75fd47ad00)" style="fill: #6a5acd; opacity: 0.7"/>
   </g>
   <g id="patch_19">
    <path d="M 202.368636 246.04 
L 210.785227 246.04 
L 210.785227 79.891694 
L 202.368636 79.891694 
z
" clip-path="url(#p75fd47ad00)" style="fill: #6a5acd; opacity: 0.7"/>
   </g>
   <g id="patch_20">
    <path d="M 210.785227 246.04 
L 219.201818 246.04 
L 219.201818 96.506525 
L 210.785227 96.506525 
z
" clip-path="url(#p75fd47ad00)" style="fill: #6a5acd; opacity: 0.7"/>
   </g>
   <g id="patch_21">
    <path d="M 219.201818 246.04 
L 227.618409 246.04 
L 227.618409 67.430571 
L 219.201818 67.430571 
z
" clip-path="url(#p75fd47ad00)" style="fill: #6a5acd; opacity: 0.7"/>
   </g>
   <g id="patch_22">
    <path d="M 227.618409 246.04 
L 236.035 246.04 
L 236.035 83.006975 
L 227.618409 83.006975 
z
" clip-path="url(#p75fd47ad00)" style="fill: #6a5acd; opacity: 0.7"/>
   </g>
   <g id="patch_23">
    <path d="M 236.035 246.04 
L 244.451591 246.04 
L 244.451591 80.930121 
L 236.035 80.930121 
z
" clip-path="url(#p75fd47ad00)" style="fill: #6a5acd; opacity: 0.7"/>
   </g>
   <g id="patch_24">
    <path d="M 244.451591 246.04 
L 252.868182 246.04 
L 252.868182 37.31619 
L 244.451591 37.31619 
z
" clip-path="url(#p75fd47ad00)" style="fill: #6a5acd; opacity: 0.7"/>
   </g>
   <g id="patch_25">
    <path d="M 252.868182 246.04 
L 261.284773 246.04 
L 261.284773 54.969448 
L 252.868182 54.969448 
z
" clip-path="url(#p75fd47ad00)" style="fill: #6a5acd; opacity: 0.7"/>
   </g>
   <g id="patch_26">
    <path d="M 261.284773 246.04 
L 269.701364 246.04 
L 269.701364 69.507425 
L 261.284773 69.507425 
z
" clip-path="url(#p75fd47ad00)" style="fill: #6a5acd; opacity: 0.7"/>
   </g>
   <g id="patch_27">
    <path d="M 269.701364 246.04 
L 278.117955 246.04 
L 278.117955 81.968548 
L 269.701364 81.968548 
z
" clip-path="url(#p75fd47ad00)" style="fill: #6a5acd; opacity: 0.7"/>
   </g>
   <g id="patch_28">
    <path d="M 278.117955 246.04 
L 286.534545 246.04 
L 286.534545 84.045402 
L 278.117955 84.045402 
z
" clip-path="url(#p75fd47ad00)" style="fill: #6a5acd; opacity: 0.7"/>
   </g>
   <g id="patch_29">
    <path d="M 286.534545 246.04 
L 294.951136 246.04 
L 294.951136 117.275063 
L 286.534545 117.275063 
z
" clip-path="url(#p75fd47ad00)" style="fill: #6a5acd; opacity: 0.7"/>
   </g>
   <g id="patch_30">
    <path d="M 294.951136 246.04 
L 303.367727 246.04 
L 303.367727 124.544051 
L 294.951136 124.544051 
z
" clip-path="url(#p75fd47ad00)" style="fill: #6a5acd; opacity: 0.7"/>
   </g>
   <g id="patch_31">
    <path d="M 303.367727 246.04 
L 311.784318 246.04 
L 311.784318 132.851466 
L 303.367727 132.851466 
z
" clip-path="url(#p75fd47ad00)" style="fill: #6a5acd; opacity: 0.7"/>
   </g>
   <g id="patch_32">
    <path d="M 311.784318 246.04 
L 320.200909 246.04 
L 320.200909 155.696859 
L 311.784318 155.696859 
z
" clip-path="url(#p75fd47ad00)" style="fill: #6a5acd; opacity: 0.7"/>
   </g>
   <g id="patch_33">
    <path d="M 320.200909 246.04 
L 328.6175 246.04 
L 328.6175 183.734385 
L 320.200909 183.734385 
z
" clip-path="url(#p75fd47ad00)" style="fill: #6a5acd; opacity: 0.7"/>
   </g>
   <g id="patch_34">
    <path d="M 328.6175 246.04 
L 337.034091 246.04 
L 337.034091 195.157081 
L 328.6175 195.157081 
z
" clip-path="url(#p75fd47ad00)" style="fill: #6a5acd; opacity: 0.7"/>
   </g>
   <g id="patch_35">
    <path d="M 337.034091 246.04 
L 345.450682 246.04 
L 345.450682 199.310789 
L 337.034091 199.310789 
z
" clip-path="url(#p75fd47ad00)" style="fill: #6a5acd; opacity: 0.7"/>
   </g>
   <g id="patch_36">
    <path d="M 345.450682 246.04 
L 353.867273 246.04 
L 353.867273 202.42607 
L 345.450682 202.42607 
z
" clip-path="url(#p75fd47ad00)" style="fill: #6a5acd; opacity: 0.7"/>
   </g>
   <g id="patch_37">
    <path d="M 353.867273 246.04 
L 362.283864 246.04 
L 362.283864 220.079327 
L 353.867273 220.079327 
z
" clip-path="url(#p75fd47ad00)" style="fill: #6a5acd; opacity: 0.7"/>
   </g>
   <g id="patch_38">
    <path d="M 362.283864 246.04 
L 370.700455 246.04 
L 370.700455 225.271462 
L 362.283864 225.271462 
z
" clip-path="url(#p75fd47ad00)" style="fill: #6a5acd; opacity: 0.7"/>
   </g>
   <g id="patch_39">
    <path d="M 370.700455 246.04 
L 379.117045 246.04 
L 379.117045 236.694158 
L 370.700455 236.694158 
z
" clip-path="url(#p75fd47ad00)" style="fill: #6a5acd; opacity: 0.7"/>
   </g>
   <g id="patch_40">
    <path d="M 379.117045 246.04 
L 387.533636 246.04 
L 387.533636 239.809439 
L 379.117045 239.809439 
z
" clip-path="url(#p75fd47ad00)" style="fill: #6a5acd; opacity: 0.7"/>
   </g>
   <g id="patch_41">
    <path d="M 387.533636 246.04 
L 395.950227 246.04 
L 395.950227 237.732585 
L 387.533636 237.732585 
z
" clip-path="url(#p75fd47ad00)" style="fill: #6a5acd; opacity: 0.7"/>
   </g>
   <g id="patch_42">
    <path d="M 395.950227 246.04 
L 404.366818 246.04 
L 404.366818 240.847865 
L 395.950227 240.847865 
z
" clip-path="url(#p75fd47ad00)" style="fill: #6a5acd; opacity: 0.7"/>
   </g>
   <g id="matplotlib.axis_1">
    <g id="xtick_1">
     <g id="line2d_1">
      <defs>
       <path id="m60f9cab099" d="M 0 0 
L 0 3.5 
" style="stroke: #000000; stroke-width: 0.8"/>
      </defs>
      <g>
       <use xlink:href="#m60f9cab099" x="69.504058" y="246.04" style="stroke: #000000; stroke-width: 0.8"/>
      </g>
     </g>
     <g id="text_1">
      <!-- −0.0100 -->
      <g transform="translate(47.818901 260.638438) scale(0.1 -0.1)">
       <defs>
        <path id="DejaVuSans-2212" d="M 678 2272 
L 4684 2272 
L 4684 1741 
L 678 1741 
L 678 2272 
z
" transform="scale(0.015625)"/>
        <path id="DejaVuSans-30" d="M 2034 4250 
Q 1547 4250 1301 3770 
Q 1056 3291 1056 2328 
Q 1056 1369 1301 889 
Q 1547 409 2034 409 
Q 2525 409 2770 889 
Q 3016 1369 3016 2328 
Q 3016 3291 2770 3770 
Q 2525 4250 2034 4250 
z
M 2034 4750 
Q 2819 4750 3233 4129 
Q 3647 3509 3647 2328 
Q 3647 1150 3233 529 
Q 2819 -91 2034 -91 
Q 1250 -91 836 529 
Q 422 1150 422 2328 
Q 422 3509 836 4129 
Q 1250 4750 2034 4750 
z
" transform="scale(0.015625)"/>
        <path id="DejaVuSans-2e" d="M 684 794 
L 1344 794 
L 1344 0 
L 684 0 
L 684 794 
z
" transform="scale(0.015625)"/>
        <path id="DejaVuSans-31" d="M 794 531 
L 1825 531 
L 1825 4091 
L 703 3866 
L 703 4441 
L 1819 4666 
L 2450 4666 
L 2450 531 
L 3481 531 
L 3481 0 
L 794 0 
L 794 531 
z
" transform="scale(0.015625)"/>
       </defs>
       <use xlink:href="#DejaVuSans-2212"/>
       <use xlink:href="#DejaVuSans-30" transform="translate(83.789062 0)"/>
       <use xlink:href="#DejaVuSans-2e" transform="translate(147.412109 0)"/>
       <use xlink:href="#DejaVuSans-30" transform="translate(179.199219 0)"/>
       <use xlink:href="#DejaVuSans-31" transform="translate(242.822266 0)"/>
       <use xlink:href="#DejaVuSans-30" transform="translate(306.445312 0)"/>
       <use xlink:href="#DejaVuSans-30" transform="translate(370.068359 0)"/>
      </g>
     </g>
    </g>
    <g id="xtick_2">
     <g id="line2d_2">
      <g>
       <use xlink:href="#m60f9cab099" x="114.124205" y="246.04" style="stroke: #000000; stroke-width: 0.8"/>
      </g>
     </g>
     <g id="text_2">
      <!-- −0.0075 -->
      <g transform="translate(92.439049 260.638438) scale(0.1 -0.1)">
       <defs>
        <path id="DejaVuSans-37" d="M 525 4666 
L 3525 4666 
L 3525 4397 
L 1831 0 
L 1172 0 
L 2766 4134 
L 525 4134 
L 525 4666 
z
" transform="scale(0.015625)"/>
        <path id="DejaVuSans-35" d="M 691 4666 
L 3169 4666 
L 3169 4134 
L 1269 4134 
L 1269 2991 
Q 1406 3038 1543 3061 
Q 1681 3084 1819 3084 
Q 2600 3084 3056 2656 
Q 3513 2228 3513 1497 
Q 3513 744 3044 326 
Q 2575 -91 1722 -91 
Q 1428 -91 1123 -41 
Q 819 9 494 109 
L 494 744 
Q 775 591 1075 516 
Q 1375 441 1709 441 
Q 2250 441 2565 725 
Q 2881 1009 2881 1497 
Q 2881 1984 2565 2268 
Q 2250 2553 1709 2553 
Q 1456 2553 1204 2497 
Q 953 2441 691 2322 
L 691 4666 
z
" transform="scale(0.015625)"/>
       </defs>
       <use xlink:href="#DejaVuSans-2212"/>
       <use xlink:href="#DejaVuSans-30" transform="translate(83.789062 0)"/>
       <use xlink:href="#DejaVuSans-2e" transform="translate(147.412109 0)"/>
       <use xlink:href="#DejaVuSans-30" transform="translate(179.199219 0)"/>
       <use xlink:href="#DejaVuSans-30" transform="translate(242.822266 0)"/>
       <use xlink:href="#DejaVuSans-37" transform="translate(306.445312 0)"/>
       <use xlink:href="#DejaVuSans-35" transform="translate(370.068359 0)"/>
      </g>
     </g>
    </g>
    <g id="xtick_3">
     <g id="line2d_3">
      <g>
       <use xlink:href="#m60f9cab099" x="158.744353" y="246.04" style="stroke: #000000; stroke-width: 0.8"/>
      </g>
     </g>
     <g id="text_3">
      <!-- −0.0050 -->
      <g transform="translate(137.059196 260.638438) scale(0.1 -0.1)">
       <use xlink:href="#DejaVuSans-2212"/>
       <use xlink:href="#DejaVuSans-30" transform="translate(83.789062 0)"/>
       <use xlink:href="#DejaVuSans-2e" transform="translate(147.412109 0)"/>
       <use xlink:href="#DejaVuSans-30" transform="translate(179.199219 0)"/>
       <use xlink:href="#DejaVuSans-30" transform="translate(242.822266 0)"/>
       <use xlink:href="#DejaVuSans-35" transform="translate(306.445312 0)"/>
       <use xlink:href="#DejaVuSans-30" transform="translate(370.068359 0)"/>
      </g>
     </g>
    </g>
    <g id="xtick_4">
     <g id="line2d_4">
      <g>
       <use xlink:href="#m60f9cab099" x="203.3645" y="246.04" style="stroke: #000000; stroke-width: 0.8"/>
      </g>
     </g>
     <g id="text_4">
      <!-- −0.0025 -->
      <g transform="translate(181.679344 260.638438) scale(0.1 -0.1)">
       <defs>
        <path id="DejaVuSans-32" d="M 1228 531 
L 3431 531 
L 3431 0 
L 469 0 
L 469 531 
Q 828 903 1448 1529 
Q 2069 2156 2228 2338 
Q 2531 2678 2651 2914 
Q 2772 3150 2772 3378 
Q 2772 3750 2511 3984 
Q 2250 4219 1831 4219 
Q 1534 4219 1204 4116 
Q 875 4013 500 3803 
L 500 4441 
Q 881 4594 1212 4672 
Q 1544 4750 1819 4750 
Q 2544 4750 2975 4387 
Q 3406 4025 3406 3419 
Q 3406 3131 3298 2873 
Q 3191 2616 2906 2266 
Q 2828 2175 2409 1742 
Q 1991 1309 1228 531 
z
" transform="scale(0.015625)"/>
       </defs>
       <use xlink:href="#DejaVuSans-2212"/>
       <use xlink:href="#DejaVuSans-30" transform="translate(83.789062 0)"/>
       <use xlink:href="#DejaVuSans-2e" transform="translate(147.412109 0)"/>
       <use xlink:href="#DejaVuSans-30" transform="translate(179.199219 0)"/>
       <use xlink:href="#DejaVuSans-30" transform="translate(242.822266 0)"/>
       <use xlink:href="#DejaVuSans-32" transform="translate(306.445312 0)"/>
       <use xlink:href="#DejaVuSans-35" transform="translate(370.068359 0)"/>
      </g>
     </g>
    </g>
    <g id="xtick_5">
     <g id="line2d_5">
      <g>
       <use xlink:href="#m60f9cab099" x="247.984648" y="246.04" style="stroke: #000000; stroke-width: 0.8"/>
      </g>
     </g>
     <g id="text_5">
      <!-- 0.0000 -->
      <g transform="translate(230.489335 260.638438) scale(0.1 -0.1)">
       <use xlink:href="#DejaVuSans-30"/>
       <use xlink:href="#DejaVuSans-2e" transform="translate(63.623047 0)"/>
       <use xlink:href="#DejaVuSans-30" transform="translate(95.410156 0)"/>
       <use xlink:href="#DejaVuSans-30" transform="translate(159.033203 0)"/>
       <use xlink:href="#DejaVuSans-30" transform="translate(222.65625 0)"/>
       <use xlink:href="#DejaVuSans-30" transform="translate(286.279297 0)"/>
      </g>
     </g>
    </g>
    <g id="xtick_6">
     <g id="line2d_6">
      <g>
       <use xlink:href="#m60f9cab099" x="292.604795" y="246.04" style="stroke: #000000; stroke-width: 0.8"/>
      </g>
     </g>
     <g id="text_6">
      <!-- 0.0025 -->
      <g transform="translate(275.109483 260.638438) scale(0.1 -0.1)">
       <use xlink:href="#DejaVuSans-30"/>
       <use xlink:href="#DejaVuSans-2e" transform="translate(63.623047 0)"/>
       <use xlink:href="#DejaVuSans-30" transform="translate(95.410156 0)"/>
       <use xlink:href="#DejaVuSans-30" transform="translate(159.033203 0)"/>
       <use xlink:href="#DejaVuSans-32" transform="translate(222.65625 0)"/>
       <use xlink:href="#DejaVuSans-35" transform="translate(286.279297 0)"/>
      </g>
     </g>
    </g>
    <g id="xtick_7">
     <g id="line2d_7">
      <g>
       <use xlink:href="#m60f9cab099" x="337.224943" y="246.04" style="stroke: #000000; stroke-width: 0.8"/>
      </g>
     </g>
     <g id="text_7">
      <!-- 0.0050 -->
      <g transform="translate(319.72963 260.638438) scale(0.1 -0.1)">
       <use xlink:href="#DejaVuSans-30"/>
       <use xlink:href="#DejaVuSans-2e" transform="translate(63.623047 0)"/>
       <use xlink:href="#DejaVuSans-30" transform="translate(95.410156 0)"/>
       <use xlink:href="#DejaVuSans-30" transform="translate(159.033203 0)"/>
       <use xlink:href="#DejaVuSans-35" transform="translate(222.65625 0)"/>
       <use xlink:href="#DejaVuSans-30" transform="translate(286.279297 0)"/>
      </g>
     </g>
    </g>
    <g id="xtick_8">
     <g id="line2d_8">
      <g>
       <use xlink:href="#m60f9cab099" x="381.84509" y="246.04" style="stroke: #000000; stroke-width: 0.8"/>
      </g>
     </g>
     <g id="text_8">
      <!-- 0.0075 -->
      <g transform="translate(364.349778 260.638438) scale(0.1 -0.1)">
       <use xlink:href="#DejaVuSans-30"/>
       <use xlink:href="#DejaVuSans-2e" transform="translate(63.623047 0)"/>
       <use xlink:href="#DejaVuSans-30" transform="translate(95.410156 0)"/>
       <use xlink:href="#DejaVuSans-30" transform="translate(159.033203 0)"/>
       <use xlink:href="#DejaVuSans-37" transform="translate(222.65625 0)"/>
       <use xlink:href="#DejaVuSans-35" transform="translate(286.279297 0)"/>
      </g>
     </g>
    </g>
    <g id="text_9">
     <!-- Bootstrapped trend (ppm yr⁻¹) -->
     <g transform="translate(159.373281 274.316562) scale(0.1 -0.1)">
      <defs>
       <path id="DejaVuSans-42" d="M 1259 2228 
L 1259 519 
L 2272 519 
Q 2781 519 3026 730 
Q 3272 941 3272 1375 
Q 3272 1813 3026 2020 
Q 2781 2228 2272 2228 
L 1259 2228 
z
M 1259 4147 
L 1259 2741 
L 2194 2741 
Q 2656 2741 2882 2914 
Q 3109 3088 3109 3444 
Q 3109 3797 2882 3972 
Q 2656 4147 2194 4147 
L 1259 4147 
z
M 628 4666 
L 2241 4666 
Q 2963 4666 3353 4366 
Q 3744 4066 3744 3513 
Q 3744 3084 3544 2831 
Q 3344 2578 2956 2516 
Q 3422 2416 3680 2098 
Q 3938 1781 3938 1306 
Q 3938 681 3513 340 
Q 3088 0 2303 0 
L 628 0 
L 628 4666 
z
" transform="scale(0.015625)"/>
       <path id="DejaVuSans-6f" d="M 1959 3097 
Q 1497 3097 1228 2736 
Q 959 2375 959 1747 
Q 959 1119 1226 758 
Q 1494 397 1959 397 
Q 2419 397 2687 759 
Q 2956 1122 2956 1747 
Q 2956 2369 2687 2733 
Q 2419 3097 1959 3097 
z
M 1959 3584 
Q 2709 3584 3137 3096 
Q 3566 2609 3566 1747 
Q 3566 888 3137 398 
Q 2709 -91 1959 -91 
Q 1206 -91 779 398 
Q 353 888 353 1747 
Q 353 2609 779 3096 
Q 1206 3584 1959 3584 
z
" transform="scale(0.015625)"/>
       <path id="DejaVuSans-74" d="M 1172 4494 
L 1172 3500 
L 2356 3500 
L 2356 3053 
L 1172 3053 
L 1172 1153 
Q 1172 725 1289 603 
Q 1406 481 1766 481 
L 2356 481 
L 2356 0 
L 1766 0 
Q 1100 0 847 248 
Q 594 497 594 1153 
L 594 3053 
L 172 3053 
L 172 3500 
L 594 3500 
L 594 4494 
L 1172 4494 
z
" transform="scale(0.015625)"/>
       <path id="DejaVuSans-73" d="M 2834 3397 
L 2834 2853 
Q 2591 2978 2328 3040 
Q 2066 3103 1784 3103 
Q 1356 3103 1142 2972 
Q 928 2841 928 2578 
Q 928 2378 1081 2264 
Q 1234 2150 1697 2047 
L 1894 2003 
Q 2506 1872 2764 1633 
Q 3022 1394 3022 966 
Q 3022 478 2636 193 
Q 2250 -91 1575 -91 
Q 1294 -91 989 -36 
Q 684 19 347 128 
L 347 722 
Q 666 556 975 473 
Q 1284 391 1588 391 
Q 1994 391 2212 530 
Q 2431 669 2431 922 
Q 2431 1156 2273 1281 
Q 2116 1406 1581 1522 
L 1381 1569 
Q 847 1681 609 1914 
Q 372 2147 372 2553 
Q 372 3047 722 3315 
Q 1072 3584 1716 3584 
Q 2034 3584 2315 3537 
Q 2597 3491 2834 3397 
z
" transform="scale(0.015625)"/>
       <path id="DejaVuSans-72" d="M 2631 2963 
Q 2534 3019 2420 3045 
Q 2306 3072 2169 3072 
Q 1681 3072 1420 2755 
Q 1159 2438 1159 1844 
L 1159 0 
L 581 0 
L 581 3500 
L 1159 3500 
L 1159 2956 
Q 1341 3275 1631 3429 
Q 1922 3584 2338 3584 
Q 2397 3584 2469 3576 
Q 2541 3569 2628 3553 
L 2631 2963 
z
" transform="scale(0.015625)"/>
       <path id="DejaVuSans-61" d="M 2194 1759 
Q 1497 1759 1228 1600 
Q 959 1441 959 1056 
Q 959 750 1161 570 
Q 1363 391 1709 391 
Q 2188 391 2477 730 
Q 2766 1069 2766 1631 
L 2766 1759 
L 2194 1759 
z
M 3341 1997 
L 3341 0 
L 2766 0 
L 2766 531 
Q 2569 213 2275 61 
Q 1981 -91 1556 -91 
Q 1019 -91 701 211 
Q 384 513 384 1019 
Q 384 1609 779 1909 
Q 1175 2209 1959 2209 
L 2766 2209 
L 2766 2266 
Q 2766 2663 2505 2880 
Q 2244 3097 1772 3097 
Q 1472 3097 1187 3025 
Q 903 2953 641 2809 
L 641 3341 
Q 956 3463 1253 3523 
Q 1550 3584 1831 3584 
Q 2591 3584 2966 3190 
Q 3341 2797 3341 1997 
z
" transform="scale(0.015625)"/>
       <path id="DejaVuSans-70" d="M 1159 525 
L 1159 -1331 
L 581 -1331 
L 581 3500 
L 1159 3500 
L 1159 2969 
Q 1341 3281 1617 3432 
Q 1894 3584 2278 3584 
Q 2916 3584 3314 3078 
Q 3713 2572 3713 1747 
Q 3713 922 3314 415 
Q 2916 -91 2278 -91 
Q 1894 -91 1617 61 
Q 1341 213 1159 525 
z
M 3116 1747 
Q 3116 2381 2855 2742 
Q 2594 3103 2138 3103 
Q 1681 3103 1420 2742 
Q 1159 2381 1159 1747 
Q 1159 1113 1420 752 
Q 1681 391 2138 391 
Q 2594 391 2855 752 
Q 3116 1113 3116 1747 
z
" transform="scale(0.015625)"/>
       <path id="DejaVuSans-65" d="M 3597 1894 
L 3597 1613 
L 953 1613 
Q 991 1019 1311 708 
Q 1631 397 2203 397 
Q 2534 397 2845 478 
Q 3156 559 3463 722 
L 3463 178 
Q 3153 47 2828 -22 
Q 2503 -91 2169 -91 
Q 1331 -91 842 396 
Q 353 884 353 1716 
Q 353 2575 817 3079 
Q 1281 3584 2069 3584 
Q 2775 3584 3186 3129 
Q 3597 2675 3597 1894 
z
M 3022 2063 
Q 3016 2534 2758 2815 
Q 2500 3097 2075 3097 
Q 1594 3097 1305 2825 
Q 1016 2553 972 2059 
L 3022 2063 
z
" transform="scale(0.015625)"/>
       <path id="DejaVuSans-64" d="M 2906 2969 
L 2906 4863 
L 3481 4863 
L 3481 0 
L 2906 0 
L 2906 525 
Q 2725 213 2448 61 
Q 2172 -91 1784 -91 
Q 1150 -91 751 415 
Q 353 922 353 1747 
Q 353 2572 751 3078 
Q 1150 3584 1784 3584 
Q 2172 3584 2448 3432 
Q 2725 3281 2906 2969 
z
M 947 1747 
Q 947 1113 1208 752 
Q 1469 391 1925 391 
Q 2381 391 2643 752 
Q 2906 1113 2906 1747 
Q 2906 2381 2643 2742 
Q 2381 3103 1925 3103 
Q 1469 3103 1208 2742 
Q 947 2381 947 1747 
z
" transform="scale(0.015625)"/>
       <path id="DejaVuSans-20" transform="scale(0.015625)"/>
       <path id="DejaVuSans-6e" d="M 3513 2113 
L 3513 0 
L 2938 0 
L 2938 2094 
Q 2938 2591 2744 2837 
Q 2550 3084 2163 3084 
Q 1697 3084 1428 2787 
Q 1159 2491 1159 1978 
L 1159 0 
L 581 0 
L 581 3500 
L 1159 3500 
L 1159 2956 
Q 1366 3272 1645 3428 
Q 1925 3584 2291 3584 
Q 2894 3584 3203 3211 
Q 3513 2838 3513 2113 
z
" transform="scale(0.015625)"/>
       <path id="DejaVuSans-28" d="M 1984 4856 
Q 1566 4138 1362 3434 
Q 1159 2731 1159 2009 
Q 1159 1288 1364 580 
Q 1569 -128 1984 -844 
L 1484 -844 
Q 1016 -109 783 600 
Q 550 1309 550 2009 
Q 550 2706 781 3412 
Q 1013 4119 1484 4856 
L 1984 4856 
z
" transform="scale(0.015625)"/>
       <path id="DejaVuSans-6d" d="M 3328 2828 
Q 3544 3216 3844 3400 
Q 4144 3584 4550 3584 
Q 5097 3584 5394 3201 
Q 5691 2819 5691 2113 
L 5691 0 
L 5113 0 
L 5113 2094 
Q 5113 2597 4934 2840 
Q 4756 3084 4391 3084 
Q 3944 3084 3684 2787 
Q 3425 2491 3425 1978 
L 3425 0 
L 2847 0 
L 2847 2094 
Q 2847 2600 2669 2842 
Q 2491 3084 2119 3084 
Q 1678 3084 1418 2786 
Q 1159 2488 1159 1978 
L 1159 0 
L 581 0 
L 581 3500 
L 1159 3500 
L 1159 2956 
Q 1356 3278 1631 3431 
Q 1906 3584 2284 3584 
Q 2666 3584 2933 3390 
Q 3200 3197 3328 2828 
z
" transform="scale(0.015625)"/>
       <path id="DejaVuSans-79" d="M 2059 -325 
Q 1816 -950 1584 -1140 
Q 1353 -1331 966 -1331 
L 506 -1331 
L 506 -850 
L 844 -850 
Q 1081 -850 1212 -737 
Q 1344 -625 1503 -206 
L 1606 56 
L 191 3500 
L 800 3500 
L 1894 763 
L 2988 3500 
L 3597 3500 
L 2059 -325 
z
" transform="scale(0.015625)"/>
       <path id="DejaVuSans-207b" d="M 428 3359 
L 2950 3359 
L 2950 3063 
L 428 3063 
L 428 3359 
z
" transform="scale(0.015625)"/>
       <path id="DejaVuSans-b9" d="M 488 2431 
L 1125 2431 
L 1125 4341 
L 428 4213 
L 428 4575 
L 1147 4697 
L 1575 4697 
L 1575 2431 
L 2216 2431 
L 2216 2088 
L 488 2088 
L 488 2431 
z
" transform="scale(0.015625)"/>
       <path id="DejaVuSans-29" d="M 513 4856 
L 1013 4856 
Q 1481 4119 1714 3412 
Q 1947 2706 1947 2009 
Q 1947 1309 1714 600 
Q 1481 -109 1013 -844 
L 513 -844 
Q 928 -128 1133 580 
Q 1338 1288 1338 2009 
Q 1338 2731 1133 3434 
Q 928 4138 513 4856 
z
" transform="scale(0.015625)"/>
      </defs>
      <use xlink:href="#DejaVuSans-42"/>
      <use xlink:href="#DejaVuSans-6f" transform="translate(68.603516 0)"/>
      <use xlink:href="#DejaVuSans-6f" transform="translate(129.785156 0)"/>
      <use xlink:href="#DejaVuSans-74" transform="translate(190.966797 0)"/>
      <use xlink:href="#DejaVuSans-73" transform="translate(230.175781 0)"/>
      <use xlink:href="#DejaVuSans-74" transform="translate(282.275391 0)"/>
      <use xlink:href="#DejaVuSans-72" transform="translate(321.484375 0)"/>
      <use xlink:href="#DejaVuSans-61" transform="translate(362.597656 0)"/>
      <use xlink:href="#DejaVuSans-70" transform="translate(423.876953 0)"/>
      <use xlink:href="#DejaVuSans-70" transform="translate(487.353516 0)"/>
      <use xlink:href="#DejaVuSans-65" transform="translate(550.830078 0)"/>
      <use xlink:href="#DejaVuSans-64" transform="translate(612.353516 0)"/>
      <use xlink:href="#DejaVuSans-20" transform="translate(675.830078 0)"/>
      <use xlink:href="#DejaVuSans-74" transform="translate(707.617188 0)"/>
      <use xlink:href="#DejaVuSans-72" transform="translate(746.826172 0)"/>
      <use xlink:href="#DejaVuSans-65" transform="translate(785.689453 0)"/>
      <use xlink:href="#DejaVuSans-6e" transform="translate(847.212891 0)"/>
      <use xlink:href="#DejaVuSans-64" transform="translate(910.591797 0)"/>
      <use xlink:href="#DejaVuSans-20" transform="translate(974.068359 0)"/>
      <use xlink:href="#DejaVuSans-28" transform="translate(1005.855469 0)"/>
      <use xlink:href="#DejaVuSans-70" transform="translate(1044.869141 0)"/>
      <use xlink:href="#DejaVuSans-70" transform="translate(1108.345703 0)"/>
      <use xlink:href="#DejaVuSans-6d" transform="translate(1171.822266 0)"/>
      <use xlink:href="#DejaVuSans-20" transform="translate(1269.234375 0)"/>
      <use xlink:href="#DejaVuSans-79" transform="translate(1301.021484 0)"/>
      <use xlink:href="#DejaVuSans-72" transform="translate(1360.201172 0)"/>
      <use xlink:href="#DejaVuSans-207b" transform="translate(1401.314453 0)"/>
      <use xlink:href="#DejaVuSans-b9" transform="translate(1454.097656 0)"/>
      <use xlink:href="#DejaVuSans-29" transform="translate(1494.185547 0)"/>
     </g>
    </g>
   </g>
   <g id="matplotlib.axis_2">
    <g id="ytick_1">
     <g id="line2d_9">
      <defs>
       <path id="md4b2ce266b" d="M 0 0 
L -3.5 0 
" style="stroke: #000000; stroke-width: 0.8"/>
      </defs>
      <g>
       <use xlink:href="#md4b2ce266b" x="50.87" y="246.04" style="stroke: #000000; stroke-width: 0.8"/>
      </g>
     </g>
     <g id="text_10">
      <!-- 0 -->
      <g transform="translate(37.5075 249.839219) scale(0.1 -0.1)">
       <use xlink:href="#DejaVuSans-30"/>
      </g>
     </g>
    </g>
    <g id="ytick_2">
     <g id="line2d_10">
      <g>
       <use xlink:href="#md4b2ce266b" x="50.87" y="220.079327" style="stroke: #000000; stroke-width: 0.8"/>
      </g>
     </g>
     <g id="text_11">
      <!-- 25 -->
      <g transform="translate(31.145 223.878546) scale(0.1 -0.1)">
       <use xlink:href="#DejaVuSans-32"/>
       <use xlink:href="#DejaVuSans-35" transform="translate(63.623047 0)"/>
      </g>
     </g>
    </g>
    <g id="ytick_3">
     <g id="line2d_11">
      <g>
       <use xlink:href="#md4b2ce266b" x="50.87" y="194.118654" style="stroke: #000000; stroke-width: 0.8"/>
      </g>
     </g>
     <g id="text_12">
      <!-- 50 -->
      <g transform="translate(31.145 197.917873) scale(0.1 -0.1)">
       <use xlink:href="#DejaVuSans-35"/>
       <use xlink:href="#DejaVuSans-30" transform="translate(63.623047 0)"/>
      </g>
     </g>
    </g>
    <g id="ytick_4">
     <g id="line2d_12">
      <g>
       <use xlink:href="#md4b2ce266b" x="50.87" y="168.157982" style="stroke: #000000; stroke-width: 0.8"/>
      </g>
     </g>
     <g id="text_13">
      <!-- 75 -->
      <g transform="translate(31.145 171.9572) scale(0.1 -0.1)">
       <use xlink:href="#DejaVuSans-37"/>
       <use xlink:href="#DejaVuSans-35" transform="translate(63.623047 0)"/>
      </g>
     </g>
    </g>
    <g id="ytick_5">
     <g id="line2d_13">
      <g>
       <use xlink:href="#md4b2ce266b" x="50.87" y="142.197309" style="stroke: #000000; stroke-width: 0.8"/>
      </g>
     </g>
     <g id="text_14">
      <!-- 100 -->
      <g transform="translate(24.7825 145.996527) scale(0.1 -0.1)">
       <use xlink:href="#DejaVuSans-31"/>
       <use xlink:href="#DejaVuSans-30" transform="translate(63.623047 0)"/>
       <use xlink:href="#DejaVuSans-30" transform="translate(127.246094 0)"/>
      </g>
     </g>
    </g>
    <g id="ytick_6">
     <g id="line2d_14">
      <g>
       <use xlink:href="#md4b2ce266b" x="50.87" y="116.236636" style="stroke: #000000; stroke-width: 0.8"/>
      </g>
     </g>
     <g id="text_15">
      <!-- 125 -->
      <g transform="translate(24.7825 120.035855) scale(0.1 -0.1)">
       <use xlink:href="#DejaVuSans-31"/>
       <use xlink:href="#DejaVuSans-32" transform="translate(63.623047 0)"/>
       <use xlink:href="#DejaVuSans-35" transform="translate(127.246094 0)"/>
      </g>
     </g>
    </g>
    <g id="ytick_7">
     <g id="line2d_15">
      <g>
       <use xlink:href="#md4b2ce266b" x="50.87" y="90.275963" style="stroke: #000000; stroke-width: 0.8"/>
      </g>
     </g>
     <g id="text_16">
      <!-- 150 -->
      <g transform="translate(24.7825 94.075182) scale(0.1 -0.1)">
       <use xlink:href="#DejaVuSans-31"/>
       <use xlink:href="#DejaVuSans-35" transform="translate(63.623047 0)"/>
       <use xlink:href="#DejaVuSans-30" transform="translate(127.246094 0)"/>
      </g>
     </g>
    </g>
    <g id="ytick_8">
     <g id="line2d_16">
      <g>
       <use xlink:href="#md4b2ce266b" x="50.87" y="64.31529" style="stroke: #000000; stroke-width: 0.8"/>
      </g>
     </g>
     <g id="text_17">
      <!-- 175 -->
      <g transform="translate(24.7825 68.114509) scale(0.1 -0.1)">
       <use xlink:href="#DejaVuSans-31"/>
       <use xlink:href="#DejaVuSans-37" transform="translate(63.623047 0)"/>
       <use xlink:href="#DejaVuSans-35" transform="translate(127.246094 0)"/>
      </g>
     </g>
    </g>
    <g id="ytick_9">
     <g id="line2d_17">
      <g>
       <use xlink:href="#md4b2ce266b" x="50.87" y="38.354617" style="stroke: #000000; stroke-width: 0.8"/>
      </g>
     </g>
     <g id="text_18">
      <!-- 200 -->
      <g transform="translate(24.7825 42.153836) scale(0.1 -0.1)">
       <use xlink:href="#DejaVuSans-32"/>
       <use xlink:href="#DejaVuSans-30" transform="translate(63.623047 0)"/>
       <use xlink:href="#DejaVuSans-30" transform="translate(127.246094 0)"/>
      </g>
     </g>
    </g>
    <g id="text_19">
     <!-- Frequency -->
     <g transform="translate(18.702813 162.289687) rotate(-90) scale(0.1 -0.1)">
      <defs>
       <path id="DejaVuSans-46" d="M 628 4666 
L 3309 4666 
L 3309 4134 
L 1259 4134 
L 1259 2759 
L 3109 2759 
L 3109 2228 
L 1259 2228 
L 1259 0 
L 628 0 
L 628 4666 
z
" transform="scale(0.015625)"/>
       <path id="DejaVuSans-71" d="M 947 1747 
Q 947 1113 1208 752 
Q 1469 391 1925 391 
Q 2381 391 2643 752 
Q 2906 1113 2906 1747 
Q 2906 2381 2643 2742 
Q 2381 3103 1925 3103 
Q 1469 3103 1208 2742 
Q 947 2381 947 1747 
z
M 2906 525 
Q 2725 213 2448 61 
Q 2172 -91 1784 -91 
Q 1150 -91 751 415 
Q 353 922 353 1747 
Q 353 2572 751 3078 
Q 1150 3584 1784 3584 
Q 2172 3584 2448 3432 
Q 2725 3281 2906 2969 
L 2906 3500 
L 3481 3500 
L 3481 -1331 
L 2906 -1331 
L 2906 525 
z
" transform="scale(0.015625)"/>
       <path id="DejaVuSans-75" d="M 544 1381 
L 544 3500 
L 1119 3500 
L 1119 1403 
Q 1119 906 1312 657 
Q 1506 409 1894 409 
Q 2359 409 2629 706 
Q 2900 1003 2900 1516 
L 2900 3500 
L 3475 3500 
L 3475 0 
L 2900 0 
L 2900 538 
Q 2691 219 2414 64 
Q 2138 -91 1772 -91 
Q 1169 -91 856 284 
Q 544 659 544 1381 
z
M 1991 3584 
L 1991 3584 
z
" transform="scale(0.015625)"/>
       <path id="DejaVuSans-63" d="M 3122 3366 
L 3122 2828 
Q 2878 2963 2633 3030 
Q 2388 3097 2138 3097 
Q 1578 3097 1268 2742 
Q 959 2388 959 1747 
Q 959 1106 1268 751 
Q 1578 397 2138 397 
Q 2388 397 2633 464 
Q 2878 531 3122 666 
L 3122 134 
Q 2881 22 2623 -34 
Q 2366 -91 2075 -91 
Q 1284 -91 818 406 
Q 353 903 353 1747 
Q 353 2603 823 3093 
Q 1294 3584 2113 3584 
Q 2378 3584 2631 3529 
Q 2884 3475 3122 3366 
z
" transform="scale(0.015625)"/>
      </defs>
      <use xlink:href="#DejaVuSans-46"/>
      <use xlink:href="#DejaVuSans-72" transform="translate(50.269531 0)"/>
      <use xlink:href="#DejaVuSans-65" transform="translate(89.132812 0)"/>
      <use xlink:href="#DejaVuSans-71" transform="translate(150.65625 0)"/>
      <use xlink:href="#DejaVuSans-75" transform="translate(214.132812 0)"/>
      <use xlink:href="#DejaVuSans-65" transform="translate(277.511719 0)"/>
      <use xlink:href="#DejaVuSans-6e" transform="translate(339.035156 0)"/>
      <use xlink:href="#DejaVuSans-63" transform="translate(402.414062 0)"/>
      <use xlink:href="#DejaVuSans-79" transform="translate(457.394531 0)"/>
     </g>
    </g>
   </g>
   <g id="line2d_18">
    <path d="M 96.157689 246.04 
L 96.157689 26.88 
" clip-path="url(#p75fd47ad00)" style="fill: none; stroke: #000000; stroke-width: 2; stroke-linecap: square"/>
   </g>
   <g id="patch_43">
    <path d="M 50.87 246.04 
L 50.87 26.88 
" style="fill: none; stroke: #000000; stroke-width: 0.8; stroke-linejoin: miter; stroke-linecap: square"/>
   </g>
   <g id="patch_44">
    <path d="M 421.2 246.04 
L 421.2 26.88 
" style="fill: none; stroke: #000000; stroke-width: 0.8; stroke-linejoin: miter; stroke-linecap: square"/>
   </g>
   <g id="patch_45">
    <path d="M 50.87 246.04 
L 421.2 246.04 
" style="fill: none; stroke: #000000; stroke-width: 0.8; stroke-linejoin: miter; stroke-linecap: square"/>
   </g>
   <g id="patch_46">
    <path d="M 50.87 26.88 
L 421.2 26.88 
" style="fill: none; stroke: #000000; stroke-width: 0.8; stroke-linejoin: miter; stroke-linecap: square"/>
   </g>
   <g id="text_20">
    <!-- S-1  Bootstrap distribution • ΔO₃ trend 60–90°S, Oct -->
    <g transform="translate(79.435937 20.88) scale(0.12 -0.12)">
     <defs>
      <path id="DejaVuSans-53" d="M 3425 4513 
L 3425 3897 
Q 3066 4069 2747 4153 
Q 2428 4238 2131 4238 
Q 1616 4238 1336 4038 
Q 1056 3838 1056 3469 
Q 1056 3159 1242 3001 
Q 1428 2844 1947 2747 
L 2328 2669 
Q 3034 2534 3370 2195 
Q 3706 1856 3706 1288 
Q 3706 609 3251 259 
Q 2797 -91 1919 -91 
Q 1588 -91 1214 -16 
Q 841 59 441 206 
L 441 856 
Q 825 641 1194 531 
Q 1563 422 1919 422 
Q 2459 422 2753 634 
Q 3047 847 3047 1241 
Q 3047 1584 2836 1778 
Q 2625 1972 2144 2069 
L 1759 2144 
Q 1053 2284 737 2584 
Q 422 2884 422 3419 
Q 422 4038 858 4394 
Q 1294 4750 2059 4750 
Q 2388 4750 2728 4690 
Q 3069 4631 3425 4513 
z
" transform="scale(0.015625)"/>
      <path id="DejaVuSans-2d" d="M 313 2009 
L 1997 2009 
L 1997 1497 
L 313 1497 
L 313 2009 
z
" transform="scale(0.015625)"/>
      <path id="DejaVuSans-69" d="M 603 3500 
L 1178 3500 
L 1178 0 
L 603 0 
L 603 3500 
z
M 603 4863 
L 1178 4863 
L 1178 4134 
L 603 4134 
L 603 4863 
z
" transform="scale(0.015625)"/>
      <path id="DejaVuSans-62" d="M 3116 1747 
Q 3116 2381 2855 2742 
Q 2594 3103 2138 3103 
Q 1681 3103 1420 2742 
Q 1159 2381 1159 1747 
Q 1159 1113 1420 752 
Q 1681 391 2138 391 
Q 2594 391 2855 752 
Q 3116 1113 3116 1747 
z
M 1159 2969 
Q 1341 3281 1617 3432 
Q 1894 3584 2278 3584 
Q 2916 3584 3314 3078 
Q 3713 2572 3713 1747 
Q 3713 922 3314 415 
Q 2916 -91 2278 -91 
Q 1894 -91 1617 61 
Q 1341 213 1159 525 
L 1159 0 
L 581 0 
L 581 4863 
L 1159 4863 
L 1159 2969 
z
" transform="scale(0.015625)"/>
      <path id="DejaVuSans-2022" d="M 959 2381 
Q 959 2769 1229 3036 
Q 1500 3303 1894 3303 
Q 2281 3303 2548 3036 
Q 2816 2769 2816 2381 
Q 2816 1991 2547 1722 
Q 2278 1453 1888 1453 
Q 1497 1453 1228 1722 
Q 959 1991 959 2381 
z
" transform="scale(0.015625)"/>
      <path id="DejaVuSans-394" d="M 2188 4044 
L 906 525 
L 3472 525 
L 2188 4044 
z
M 50 0 
L 1831 4666 
L 2547 4666 
L 4325 0 
L 50 0 
z
" transform="scale(0.015625)"/>
      <path id="DejaVuSans-4f" d="M 2522 4238 
Q 1834 4238 1429 3725 
Q 1025 3213 1025 2328 
Q 1025 1447 1429 934 
Q 1834 422 2522 422 
Q 3209 422 3611 934 
Q 4013 1447 4013 2328 
Q 4013 3213 3611 3725 
Q 3209 4238 2522 4238 
z
M 2522 4750 
Q 3503 4750 4090 4092 
Q 4678 3434 4678 2328 
Q 4678 1225 4090 567 
Q 3503 -91 2522 -91 
Q 1538 -91 948 565 
Q 359 1222 359 2328 
Q 359 3434 948 4092 
Q 1538 4750 2522 4750 
z
" transform="scale(0.015625)"/>
      <path id="DejaVuSans-2083" d="M 1638 1388 
Q 1925 1332 2083 1161 
Q 2241 991 2241 735 
Q 2241 347 1944 138 
Q 1647 -71 1094 -71 
Q 916 -71 720 -38 
Q 525 -6 306 57 
L 306 435 
Q 469 351 655 310 
Q 841 269 1050 269 
Q 1391 269 1578 392 
Q 1766 516 1766 735 
Q 1766 966 1592 1085 
Q 1419 1204 1081 1204 
L 813 1204 
L 813 1541 
L 1106 1541 
Q 1400 1541 1551 1639 
Q 1703 1738 1703 1926 
Q 1703 2107 1547 2202 
Q 1391 2297 1094 2297 
Q 969 2297 809 2269 
Q 650 2241 397 2169 
L 397 2529 
Q 625 2582 825 2610 
Q 1025 2638 1197 2638 
Q 1647 2638 1911 2453 
Q 2175 2269 2175 1960 
Q 2175 1744 2034 1594 
Q 1894 1444 1638 1388 
z
" transform="scale(0.015625)"/>
      <path id="DejaVuSans-36" d="M 2113 2584 
Q 1688 2584 1439 2293 
Q 1191 2003 1191 1497 
Q 1191 994 1439 701 
Q 1688 409 2113 409 
Q 2538 409 2786 701 
Q 3034 994 3034 1497 
Q 3034 2003 2786 2293 
Q 2538 2584 2113 2584 
z
M 3366 4563 
L 3366 3988 
Q 3128 4100 2886 4159 
Q 2644 4219 2406 4219 
Q 1781 4219 1451 3797 
Q 1122 3375 1075 2522 
Q 1259 2794 1537 2939 
Q 1816 3084 2150 3084 
Q 2853 3084 3261 2657 
Q 3669 2231 3669 1497 
Q 3669 778 3244 343 
Q 2819 -91 2113 -91 
Q 1303 -91 875 529 
Q 447 1150 447 2328 
Q 447 3434 972 4092 
Q 1497 4750 2381 4750 
Q 2619 4750 2861 4703 
Q 3103 4656 3366 4563 
z
" transform="scale(0.015625)"/>
      <path id="DejaVuSans-2013" d="M 313 1978 
L 2888 1978 
L 2888 1528 
L 313 1528 
L 313 1978 
z
" transform="scale(0.015625)"/>
      <path id="DejaVuSans-39" d="M 703 97 
L 703 672 
Q 941 559 1184 500 
Q 1428 441 1663 441 
Q 2288 441 2617 861 
Q 2947 1281 2994 2138 
Q 2813 1869 2534 1725 
Q 2256 1581 1919 1581 
Q 1219 1581 811 2004 
Q 403 2428 403 3163 
Q 403 3881 828 4315 
Q 1253 4750 1959 4750 
Q 2769 4750 3195 4129 
Q 3622 3509 3622 2328 
Q 3622 1225 3098 567 
Q 2575 -91 1691 -91 
Q 1453 -91 1209 -44 
Q 966 3 703 97 
z
M 1959 2075 
Q 2384 2075 2632 2365 
Q 2881 2656 2881 3163 
Q 2881 3666 2632 3958 
Q 2384 4250 1959 4250 
Q 1534 4250 1286 3958 
Q 1038 3666 1038 3163 
Q 1038 2656 1286 2365 
Q 1534 2075 1959 2075 
z
" transform="scale(0.015625)"/>
      <path id="DejaVuSans-b0" d="M 1600 4347 
Q 1350 4347 1178 4173 
Q 1006 4000 1006 3750 
Q 1006 3503 1178 3333 
Q 1350 3163 1600 3163 
Q 1850 3163 2022 3333 
Q 2194 3503 2194 3750 
Q 2194 3997 2020 4172 
Q 1847 4347 1600 4347 
z
M 1600 4750 
Q 1800 4750 1984 4673 
Q 2169 4597 2303 4453 
Q 2447 4313 2519 4134 
Q 2591 3956 2591 3750 
Q 2591 3338 2302 3052 
Q 2013 2766 1594 2766 
Q 1172 2766 890 3047 
Q 609 3328 609 3750 
Q 609 4169 896 4459 
Q 1184 4750 1600 4750 
z
" transform="scale(0.015625)"/>
      <path id="DejaVuSans-2c" d="M 750 794 
L 1409 794 
L 1409 256 
L 897 -744 
L 494 -744 
L 750 256 
L 750 794 
z
" transform="scale(0.015625)"/>
     </defs>
     <use xlink:href="#DejaVuSans-53"/>
     <use xlink:href="#DejaVuSans-2d" transform="translate(63.476562 0)"/>
     <use xlink:href="#DejaVuSans-31" transform="translate(99.560547 0)"/>
     <use xlink:href="#DejaVuSans-20" transform="translate(163.183594 0)"/>
     <use xlink:href="#DejaVuSans-20" transform="translate(194.970703 0)"/>
     <use xlink:href="#DejaVuSans-42" transform="translate(226.757812 0)"/>
     <use xlink:href="#DejaVuSans-6f" transform="translate(295.361328 0)"/>
     <use xlink:href="#DejaVuSans-6f" transform="translate(356.542969 0)"/>
     <use xlink:href="#DejaVuSans-74" transform="translate(417.724609 0)"/>
     <use xlink:href="#DejaVuSans-73" transform="translate(456.933594 0)"/>
     <use xlink:href="#DejaVuSans-74" transform="translate(509.033203 0)"/>
     <use xlink:href="#DejaVuSans-72" transform="translate(548.242188 0)"/>
     <use xlink:href="#DejaVuSans-61" transform="translate(589.355469 0)"/>
     <use xlink:href="#DejaVuSans-70" transform="translate(650.634766 0)"/>
     <use xlink:href="#DejaVuSans-20" transform="translate(714.111328 0)"/>
     <use xlink:href="#DejaVuSans-64" transform="translate(745.898438 0)"/>
     <use xlink:href="#DejaVuSans-69" transform="translate(809.375 0)"/>
     <use xlink:href="#DejaVuSans-73" transform="translate(837.158203 0)"/>
     <use xlink:href="#DejaVuSans-74" transform="translate(889.257812 0)"/>
     <use xlink:href="#DejaVuSans-72" transform="translate(928.466797 0)"/>
     <use xlink:href="#DejaVuSans-69" transform="translate(969.580078 0)"/>
     <use xlink:href="#DejaVuSans-62" transform="translate(997.363281 0)"/>
     <use xlink:href="#DejaVuSans-75" transform="translate(1060.839844 0)"/>
     <use xlink:href="#DejaVuSans-74" transform="translate(1124.21875 0)"/>
     <use xlink:href="#DejaVuSans-69" transform="translate(1163.427734 0)"/>
     <use xlink:href="#DejaVuSans-6f" transform="translate(1191.210938 0)"/>
     <use xlink:href="#DejaVuSans-6e" transform="translate(1252.392578 0)"/>
     <use xlink:href="#DejaVuSans-20" transform="translate(1315.771484 0)"/>
     <use xlink:href="#DejaVuSans-2022" transform="translate(1347.558594 0)"/>
     <use xlink:href="#DejaVuSans-20" transform="translate(1406.542969 0)"/>
     <use xlink:href="#DejaVuSans-394" transform="translate(1438.330078 0)"/>
     <use xlink:href="#DejaVuSans-4f" transform="translate(1506.738281 0)"/>
     <use xlink:href="#DejaVuSans-2083" transform="translate(1585.449219 0)"/>
     <use xlink:href="#DejaVuSans-20" transform="translate(1625.537109 0)"/>
     <use xlink:href="#DejaVuSans-74" transform="translate(1657.324219 0)"/>
     <use xlink:href="#DejaVuSans-72" transform="translate(1696.533203 0)"/>
     <use xlink:href="#DejaVuSans-65" transform="translate(1735.396484 0)"/>
     <use xlink:href="#DejaVuSans-6e" transform="translate(1796.919922 0)"/>
     <use xlink:href="#DejaVuSans-64" transform="translate(1860.298828 0)"/>
     <use xlink:href="#DejaVuSans-20" transform="translate(1923.775391 0)"/>
     <use xlink:href="#DejaVuSans-36" transform="translate(1955.5625 0)"/>
     <use xlink:href="#DejaVuSans-30" transform="translate(2019.185547 0)"/>
     <use xlink:href="#DejaVuSans-2013" transform="translate(2082.808594 0)"/>
     <use xlink:href="#DejaVuSans-39" transform="translate(2132.808594 0)"/>
     <use xlink:href="#DejaVuSans-30" transform="translate(2196.431641 0)"/>
     <use xlink:href="#DejaVuSans-b0" transform="translate(2260.054688 0)"/>
     <use xlink:href="#DejaVuSans-53" transform="translate(2310.054688 0)"/>
     <use xlink:href="#DejaVuSans-2c" transform="translate(2373.53125 0)"/>
     <use xlink:href="#DejaVuSans-20" transform="translate(2405.318359 0)"/>
     <use xlink:href="#DejaVuSans-4f" transform="translate(2437.105469 0)"/>
     <use xlink:href="#DejaVuSans-63" transform="translate(2515.816406 0)"/>
     <use xlink:href="#DejaVuSans-74" transform="translate(2570.796875 0)"/>
    </g>
   </g>
   <g id="legend_1">
    <g id="patch_47">
     <path d="M 180.695312 49.558125 
L 414.2 49.558125 
Q 416.2 49.558125 416.2 47.558125 
L 416.2 33.88 
Q 416.2 31.88 414.2 31.88 
L 180.695312 31.88 
Q 178.695312 31.88 178.695312 33.88 
L 178.695312 47.558125 
Q 178.695312 49.558125 180.695312 49.558125 
z
" style="fill: #ffffff; opacity: 0.8; stroke: #cccccc; stroke-linejoin: miter"/>
    </g>
    <g id="line2d_19">
     <path d="M 182.695312 39.978437 
L 192.695312 39.978437 
L 202.695312 39.978437 
" style="fill: none; stroke: #000000; stroke-width: 2; stroke-linecap: square"/>
    </g>
    <g id="text_21">
     <!-- Single-member trend = -0.009 ppm yr⁻¹ -->
     <g transform="translate(210.695312 43.478437) scale(0.1 -0.1)">
      <defs>
       <path id="DejaVuSans-67" d="M 2906 1791 
Q 2906 2416 2648 2759 
Q 2391 3103 1925 3103 
Q 1463 3103 1205 2759 
Q 947 2416 947 1791 
Q 947 1169 1205 825 
Q 1463 481 1925 481 
Q 2391 481 2648 825 
Q 2906 1169 2906 1791 
z
M 3481 434 
Q 3481 -459 3084 -895 
Q 2688 -1331 1869 -1331 
Q 1566 -1331 1297 -1286 
Q 1028 -1241 775 -1147 
L 775 -588 
Q 1028 -725 1275 -790 
Q 1522 -856 1778 -856 
Q 2344 -856 2625 -561 
Q 2906 -266 2906 331 
L 2906 616 
Q 2728 306 2450 153 
Q 2172 0 1784 0 
Q 1141 0 747 490 
Q 353 981 353 1791 
Q 353 2603 747 3093 
Q 1141 3584 1784 3584 
Q 2172 3584 2450 3431 
Q 2728 3278 2906 2969 
L 2906 3500 
L 3481 3500 
L 3481 434 
z
" transform="scale(0.015625)"/>
       <path id="DejaVuSans-6c" d="M 603 4863 
L 1178 4863 
L 1178 0 
L 603 0 
L 603 4863 
z
" transform="scale(0.015625)"/>
       <path id="DejaVuSans-3d" d="M 678 2906 
L 4684 2906 
L 4684 2381 
L 678 2381 
L 678 2906 
z
M 678 1631 
L 4684 1631 
L 4684 1100 
L 678 1100 
L 678 1631 
z
" transform="scale(0.015625)"/>
      </defs>
      <use xlink:href="#DejaVuSans-53"/>
      <use xlink:href="#DejaVuSans-69" transform="translate(63.476562 0)"/>
      <use xlink:href="#DejaVuSans-6e" transform="translate(91.259766 0)"/>
      <use xlink:href="#DejaVuSans-67" transform="translate(154.638672 0)"/>
      <use xlink:href="#DejaVuSans-6c" transform="translate(218.115234 0)"/>
      <use xlink:href="#DejaVuSans-65" transform="translate(245.898438 0)"/>
      <use xlink:href="#DejaVuSans-2d" transform="translate(307.421875 0)"/>
      <use xlink:href="#DejaVuSans-6d" transform="translate(343.505859 0)"/>
      <use xlink:href="#DejaVuSans-65" transform="translate(440.917969 0)"/>
      <use xlink:href="#DejaVuSans-6d" transform="translate(502.441406 0)"/>
      <use xlink:href="#DejaVuSans-62" transform="translate(599.853516 0)"/>
      <use xlink:href="#DejaVuSans-65" transform="translate(663.330078 0)"/>
      <use xlink:href="#DejaVuSans-72" transform="translate(724.853516 0)"/>
      <use xlink:href="#DejaVuSans-20" transform="translate(765.966797 0)"/>
      <use xlink:href="#DejaVuSans-74" transform="translate(797.753906 0)"/>
      <use xlink:href="#DejaVuSans-72" transform="translate(836.962891 0)"/>
      <use xlink:href="#DejaVuSans-65" transform="translate(875.826172 0)"/>
      <use xlink:href="#DejaVuSans-6e" transform="translate(937.349609 0)"/>
      <use xlink:href="#DejaVuSans-64" transform="translate(1000.728516 0)"/>
      <use xlink:href="#DejaVuSans-20" transform="translate(1064.205078 0)"/>
      <use xlink:href="#DejaVuSans-3d" transform="translate(1095.992188 0)"/>
      <use xlink:href="#DejaVuSans-20" transform="translate(1179.78125 0)"/>
      <use xlink:href="#DejaVuSans-2d" transform="translate(1211.568359 0)"/>
      <use xlink:href="#DejaVuSans-30" transform="translate(1247.652344 0)"/>
      <use xlink:href="#DejaVuSans-2e" transform="translate(1311.275391 0)"/>
      <use xlink:href="#DejaVuSans-30" transform="translate(1343.0625 0)"/>
      <use xlink:href="#DejaVuSans-30" transform="translate(1406.685547 0)"/>
      <use xlink:href="#DejaVuSans-39" transform="translate(1470.308594 0)"/>
      <use xlink:href="#DejaVuSans-20" transform="translate(1533.931641 0)"/>
      <use xlink:href="#DejaVuSans-70" transform="translate(1565.71875 0)"/>
      <use xlink:href="#DejaVuSans-70" transform="translate(1629.195312 0)"/>
      <use xlink:href="#DejaVuSans-6d" transform="translate(1692.671875 0)"/>
      <use xlink:href="#DejaVuSans-20" transform="translate(1790.083984 0)"/>
      <use xlink:href="#DejaVuSans-79" transform="translate(1821.871094 0)"/>
      <use xlink:href="#DejaVuSans-72" transform="translate(1881.050781 0)"/>
      <use xlink:href="#DejaVuSans-207b" transform="translate(1922.164062 0)"/>
      <use xlink:href="#DejaVuSans-b9" transform="translate(1974.947266 0)"/>
     </g>
    </g>
   </g>
  </g>
 </g>
 <defs>
  <clipPath id="p75fd47ad00">
   <rect x="50.87" y="26.88" width="370.33" height="219.16"/>
  </clipPath>
 </defs>
</svg>
